<svg width="18" height="18" viewBox="0 0 18 18" fill="none" xmlns="http://www.w3.org/2000/svg">
<path d="M9 16.5C6.62091 16.5 4.76671 15.877 3.49289 14.6501C2.16999 13.3741 1.5 11.473 1.5 9C1.5 6.52703 2.16999 4.62589 3.49289 3.34993C4.76671 2.12304 6.62091 1.5 9 1.5C11.3791 1.5 13.2333 2.12304 14.5071 3.34993C15.83 4.62376 16.5 6.52489 16.5 9C16.5 11.4751 15.83 13.3741 14.5071 14.6501C13.2333 15.877 11.3791 16.5 9 16.5ZM9 2.35349C6.84922 2.35349 5.19559 2.89545 4.08606 3.96444C2.93599 5.07184 2.35349 6.766 2.35349 9C2.35349 11.234 2.93599 12.926 4.08606 14.0356C5.19559 15.1046 6.84922 15.6465 9 15.6465C11.1508 15.6465 12.8044 15.1046 13.9139 14.0356C15.064 12.9282 15.6465 11.234 15.6465 9C15.6465 6.766 15.064 5.07397 13.9139 3.96444C12.8044 2.89545 11.1508 2.35349 9 2.35349Z" fill="#019DF4"/>
<path d="M4.4742 15.3543C4.23949 15.3543 4.04746 15.1622 4.04746 14.9275C4.04746 14.8145 4.09227 14.7035 4.17335 14.6246L6.49269 12.3351L6.03395 11.8699L5.57306 11.4048L3.34333 13.6025C3.17904 13.7711 2.90806 13.7732 2.73949 13.6089C2.57093 13.4446 2.5688 13.1736 2.73309 13.0051L2.74376 12.9944L5.27648 10.4958C5.44504 10.3294 5.71389 10.3315 5.88032 10.5001L6.02754 10.6494C6.54177 9.6274 7.0752 8.11887 7.22029 6.11531C7.09013 6.05983 6.97065 5.97875 6.87249 5.8742C6.66552 5.65869 6.56097 5.37491 6.56097 5.02925C6.56097 4.68359 6.66552 4.40194 6.87249 4.1843C7.07946 3.96879 7.36325 3.85144 7.68544 3.85144C8.00763 3.85144 8.28928 3.96666 8.49838 4.1843C8.70749 4.40194 8.80991 4.68572 8.80991 5.02925C8.80991 5.37278 8.70535 5.65656 8.49838 5.8742C8.38103 5.99795 8.2338 6.09184 8.07164 6.14518C7.95642 7.7668 7.60222 9.09184 7.19468 10.1182L10.8967 6.46097C10.8348 6.31801 10.8028 6.16438 10.8092 6.00862C10.8177 5.7099 10.9458 5.43679 11.1933 5.19355C11.4408 4.9503 11.7139 4.82441 12.0126 4.81801C12.3156 4.80948 12.5972 4.9247 12.8256 5.15087C13.0539 5.37704 13.1733 5.65869 13.1648 5.96168C13.1563 6.2604 13.0283 6.53352 12.7807 6.77676C12.5332 7.02 12.2601 7.14376 11.9614 7.15229C11.8035 7.15656 11.6456 7.12669 11.5005 7.06268L7.86894 10.6473C8.88245 10.259 10.1712 9.92185 11.7374 9.8109C11.7928 9.64874 11.8846 9.50151 12.0083 9.38416C12.2238 9.17719 12.5076 9.07263 12.8533 9.07263C13.199 9.07263 13.4827 9.17932 13.6982 9.38629C13.9137 9.59326 14.0311 9.87704 14.0311 10.1992C14.0311 10.5214 13.9159 10.8031 13.6982 11.0143C13.4806 11.2256 13.199 11.3258 12.8533 11.3258C12.5076 11.3258 12.226 11.2191 12.0083 11.0143C11.9059 10.9162 11.8227 10.7967 11.7672 10.6665C9.75727 10.8116 8.24661 11.3493 7.22242 11.8657L7.39312 12.0385C7.55955 12.2071 7.55742 12.4759 7.38885 12.6423L4.77506 15.2327C4.69397 15.3116 4.58729 15.3543 4.4742 15.3543ZM12.5375 10.212C12.5396 10.3209 12.5738 10.3678 12.6079 10.3998C12.6271 10.419 12.6869 10.4745 12.8618 10.4745C13.0368 10.4745 13.0965 10.419 13.1157 10.3998C13.1499 10.3657 13.1862 10.3166 13.1862 10.2014C13.1862 10.0861 13.1499 10.0371 13.1157 10.0029C13.0965 9.98373 13.0368 9.92825 12.8618 9.92825C12.6869 9.92825 12.6271 9.98373 12.6079 10.0029C12.5738 10.0371 12.5375 10.0861 12.5375 10.1992V10.2078C12.5354 10.2099 12.5354 10.212 12.5375 10.212ZM11.7502 6.21346C11.8334 6.29454 11.8931 6.30521 11.9422 6.30308C11.9699 6.30308 12.0553 6.30094 12.1833 6.17292C12.3113 6.0449 12.3113 5.96808 12.3135 5.94248C12.3156 5.89767 12.3049 5.84006 12.2281 5.76325C12.1513 5.68643 12.0873 5.67363 12.0382 5.67576C12.0105 5.67576 11.9251 5.6779 11.7971 5.80592C11.6691 5.93394 11.6691 6.01076 11.6669 6.03636C11.6648 6.07904 11.6733 6.13665 11.7502 6.21346ZM7.68971 5.35357C7.80279 5.35357 7.85187 5.3173 7.88601 5.28316C7.90521 5.26396 7.96069 5.20635 7.96069 5.02925C7.96069 4.85215 7.90521 4.79454 7.88601 4.77534C7.85187 4.7412 7.80279 4.70493 7.68757 4.70493C7.57235 4.70493 7.52328 4.7412 7.48914 4.77534C7.46993 4.79454 7.41446 4.85215 7.41446 5.02925C7.41446 5.20635 7.46993 5.26396 7.48914 5.28316C7.52114 5.3173 7.56809 5.35144 7.6769 5.35357H7.68971Z" fill="#019DF4"/>
</svg>
