<svg width="16" height="16" viewBox="0 0 16 16" fill="none" xmlns="http://www.w3.org/2000/svg">
<path d="M12.8926 2.97625C11.7606 1.88603 10.1139 1.33333 7.99612 1.33333C5.87836 1.33333 4.23164 1.88603 3.10153 2.97815C1.92774 4.11016 1.33325 5.80057 1.33325 8.00189C1.33325 10.2032 1.92774 11.8917 3.10153 13.0237C4.23164 14.114 5.87836 14.6667 7.99612 14.6667C10.1139 14.6667 11.7606 14.114 12.8926 13.0237C14.0664 11.8917 14.6628 10.2032 14.6628 8.00189C14.6628 5.80057 14.0683 4.10826 12.8926 2.97625ZM10.7729 8.2697L6.26203 10.8737C6.10438 10.9649 5.90305 10.9098 5.81188 10.7521C5.78339 10.7027 5.7682 10.6458 5.7682 10.5888V5.37891C5.7682 5.19658 5.91635 5.05033 6.09868 5.05033C6.15566 5.05033 6.21264 5.06552 6.26203 5.09401L10.7729 7.698C10.9306 7.78917 10.9838 7.9905 10.8926 8.14814C10.8641 8.19943 10.8242 8.23931 10.7729 8.2697Z" fill="#019DF4"/>
</svg>
