<svg width="32" height="30" viewBox="0 0 32 30" fill="none" xmlns="http://www.w3.org/2000/svg">
<path fill-rule="evenodd" clip-rule="evenodd" d="M21.8518 15.7137H16.4422V20.9624C16.4422 21.3756 16.0964 21.7137 15.6659 21.7137C15.2354 21.7137 14.8896 21.3791 14.8896 20.9624V15.7137H9.49059C9.06361 15.7137 8.71427 15.3791 8.71427 14.9624C8.71427 14.5492 9.06009 14.2112 9.49059 14.2112H14.8896V9.03756C14.8896 8.62436 15.2354 8.28628 15.6659 8.28628C16.0964 8.28628 16.4422 8.62095 16.4422 9.03756V14.2146H21.8518C22.2788 14.2146 22.6281 14.5492 22.6281 14.9659C22.6246 15.3791 22.2788 15.7137 21.8518 15.7137ZM16.1917 3.01366C15.9023 3.00683 15.5636 3 15.2389 3H15.0166C12.5253 3.02049 3.27295 3.8469 3.27295 14.9624C3.27295 26.0916 12.6135 26.9624 15.1048 26.9966C15.2354 27 15.373 27 15.5071 27C15.7647 27 16.0188 26.9966 16.2375 26.9932C18.6053 26.9522 28.0694 26.0916 28.0694 15.0341C28.0729 3.99715 18.6194 3.0683 16.1917 3.01366Z" fill="#008EDD"/>
</svg>
