<?xml version="1.0" encoding="UTF-8"?><!DOCTYPE svg PUBLIC "-//W3C//DTD SVG 1.1//EN" "http://www.w3.org/Graphics/SVG/1.1/DTD/svg11.dtd"><svg xmlns="http://www.w3.org/2000/svg" xmlns:xlink="http://www.w3.org/1999/xlink"><symbol id="icon-arrow-down" viewBox="0 0 1024 1024"><path d="M104.704 338.752a64 64 0 0190.496 0l316.8 316.8 316.8-316.8a64 64 0 0190.496 90.496L557.248 791.296a64 64 0 01-90.496 0L104.704 429.248a64 64 0 010-90.496z"/></symbol><symbol id="icon-facebook" viewBox="0 0 14 14"><path d="M12.05.333H1.994c-.923 0-1.66.738-1.66 1.707v10.148c0 .923.737 1.707 1.66 1.707h5.028V9.236h-1.66V7.114h1.66V5.408c0-1.384 1.107-2.538 2.49-2.538h1.662v2.122h-.83c-.462 0-.831-.046-.831.416v1.706h2.076l-.83 2.122H9.512v4.66h2.49c.924 0 1.662-.739 1.662-1.708V2.04A1.626 1.626 0 0012.05.333z"/></symbol><symbol id="icon-instagram" viewBox="0 0 1024 1024"><path d="M512 378.7c-73.4 0-133.3 59.9-133.3 133.3S438.6 645.3 512 645.3 645.3 585.4 645.3 512 585.4 378.7 512 378.7zM911.8 512c0-55.2.5-109.9-2.6-165-3.1-64-17.7-120.8-64.5-167.6-46.9-46.9-103.6-61.4-167.6-64.5-55.2-3.1-109.9-2.6-165-2.6-55.2 0-109.9-.5-165 2.6-64 3.1-120.8 17.7-167.6 64.5C132.6 226.3 118.1 283 115 347c-3.1 55.2-2.6 109.9-2.6 165s-.5 109.9 2.6 165c3.1 64 17.7 120.8 64.5 167.6 46.9 46.9 103.6 61.4 167.6 64.5 55.2 3.1 109.9 2.6 165 2.6 55.2 0 109.9.5 165-2.6 64-3.1 120.8-17.7 167.6-64.5 46.9-46.9 61.4-103.6 64.5-167.6 3.2-55.1 2.6-109.8 2.6-165zM512 717.1c-113.5 0-205.1-91.6-205.1-205.1S398.5 306.9 512 306.9 717.1 398.5 717.1 512 625.5 717.1 512 717.1zm213.5-370.7c-26.5 0-47.9-21.4-47.9-47.9s21.4-47.9 47.9-47.9 47.9 21.4 47.9 47.9a47.84 47.84 0 01-47.9 47.9z"/></symbol><symbol id="icon-libro_reclamacion" viewBox="0 0 16 12"><path d="M1.8 1.065C1.8.177 3.462-.285 4.358.19l2.109 1.142H1.804v6.24c0 .522.236 1.017.642 1.346L6.251 12H1.333A1.333 1.333 0 010 10.667v-8c0-.737.597-1.334 1.333-1.334H1.8v-.268z"/><path fill-rule="evenodd" clip-rule="evenodd" d="M2.604 1.333h3.883v9.829L2.95 8.297a.933.933 0 01-.346-.726V1.333zM3.688 6.75a.4.4 0 00.062.562l1.667 1.334a.4.4 0 00.5-.625L4.25 6.688a.4.4 0 00-.562.062zm2.219-1.07a.4.4 0 11-.48.64l-1.334-1a.4.4 0 11.48-.64l1.334 1zM3.675 2.1a.4.4 0 00.092.558l1.666 1.196a.4.4 0 10.467-.65L4.233 2.008a.4.4 0 00-.558.092zM7.287 11.996V12h4.602c.736 0 1.333-.597 1.333-1.333V9.399a.513.513 0 00.123-.09v-.001l.044-.043c.314-.312 2.162-2.147 2.294-2.292.198-.221.317-.51.317-.83 0-.304-.103-.596-.287-.819a1.031 1.031 0 00-.708-.38.96.96 0 00-.785.316c-.324.338-.66.662-.998.983V2.667c0-.737-.597-1.334-1.333-1.334H7.287v10.663zm4.06-2.558a.4.4 0 00-.329-.171H8.264a.4.4 0 100 .8h2.755a.4.4 0 00.397-.446.614.614 0 01-.07-.183zM7.864 6.75c0-.22.179-.4.4-.4h2.204a.4.4 0 010 .8H8.264a.4.4 0 01-.4-.4zm0-2.917c0-.22.179-.4.4-.4h3.306a.4.4 0 010 .8H8.264a.4.4 0 01-.4-.4zm7.076 1.909c.04.003.1.025.157.093.059.071.103.18.103.308 0 .115-.04.213-.108.29l-.003.003c.001-.001 0 0 0 0l-.026.027-.075.077a306.705 306.705 0 01-.961.963l-1.2 1.193-.566.21.243-.812a1.335 1.335 0 01.084-.139c.261-.258.547-.528.84-.805.461-.436.94-.889 1.37-1.337a.23.23 0 01.092-.065.127.127 0 01.05-.006z"/></symbol><symbol id="icon-twitter" viewBox="0 0 16 12"><path d="M15.177 1.356a6.682 6.682 0 01-1.707.502A2.882 2.882 0 0014.775.2c-.552.351-1.205.602-1.907.753A2.886 2.886 0 0010.708 0C9.053 0 7.747 1.356 7.747 3.013c0 .25 0 .451.05.702-2.46-.1-4.669-1.305-6.125-3.163a3.067 3.067 0 00-.402 1.507c0 1.054.553 1.958 1.306 2.51-.502 0-.954-.15-1.356-.351v.05c0 1.456 1.054 2.711 2.41 2.962-.251.05-.502.1-.803.1-.201 0-.402 0-.553-.05a3.083 3.083 0 002.812 2.11 5.966 5.966 0 01-3.715 1.305c-.251 0-.502 0-.703-.05A8.415 8.415 0 005.236 12c5.473 0 8.485-4.62 8.485-8.586v-.401c.552-.553 1.054-1.055 1.456-1.657z"/></symbol><symbol id="icon-youtube" viewBox="0 0 50 50"><path d="M44.898 14.5c-.398-2.2-2.296-3.8-4.5-4.3C37.102 9.5 31 9 24.398 9c-6.597 0-12.796.5-16.097 1.2-2.2.5-4.102 2-4.5 4.3C3.398 17 3 20.5 3 25s.398 8 .898 10.5c.403 2.2 2.301 3.8 4.5 4.3 3.5.7 9.5 1.2 16.102 1.2s12.602-.5 16.102-1.2c2.199-.5 4.097-2 4.5-4.3.398-2.5.898-6.102 1-10.5-.204-4.5-.704-8-1.204-10.5zM19 32V18l12.2 7z"/></symbol></svg>