<?xml version="1.0" encoding="UTF-8"?><!DOCTYPE svg PUBLIC "-//W3C//DTD SVG 1.1//EN" "http://www.w3.org/Graphics/SVG/1.1/DTD/svg11.dtd"><svg xmlns="http://www.w3.org/2000/svg" xmlns:xlink="http://www.w3.org/1999/xlink"><symbol id="icon-app" viewBox="0 0 24 24"><path fill-rule="evenodd" clip-rule="evenodd" d="M17.729 2h3.275c.55 0 .996.447.996.996v3.275c0 .55-.447.997-.996.997h-3.276a.997.997 0 01-.995-.997V2.996c0-.55.446-.996.995-.996zm-7.365 0h3.275c.55 0 .996.447.996.996v3.275c0 .55-.447.997-.996.997h-3.275a.997.997 0 01-.996-.997V2.996c0-.55.444-.996.996-.996zM2.996 2h3.275c.55 0 .997.447.997.996v3.275c0 .55-.447.997-.997.997H2.996A.997.997 0 012 6.27V2.996c0-.55.447-.996.996-.996zm14.732 7.368h3.276c.55 0 .996.446.996.996v3.275c0 .55-.447.996-.996.996h-3.276a.997.997 0 01-.995-.996v-3.275c0-.552.446-.996.995-.996zm-7.364 0h3.275c.55 0 .996.446.996.996v3.275c0 .55-.447.996-.996.996h-3.275a.997.997 0 01-.996-.996v-3.275c0-.552.444-.996.996-.996zm-7.368 0h3.275c.55 0 .997.446.997.996v3.275c0 .55-.447.996-.997.996H2.996A.997.997 0 012 13.64v-3.275c0-.552.447-.996.996-.996zm7.368 7.365h3.275c.55 0 .996.446.996.995v3.276c0 .55-.447.996-.996.996h-3.275a.997.997 0 01-.996-.996v-3.276c0-.549.444-.995.996-.995zm7.342 0h3.275c.55 0 .996.446.996.995v3.276c0 .55-.447.996-.996.996h-3.275a.997.997 0 01-.996-.996v-3.276c0-.549.444-.995.996-.995zm-14.71 0h3.275c.55 0 .997.446.997.995v3.276c0 .55-.447.996-.997.996H2.996A.997.997 0 012 21.004v-3.276c0-.549.447-.995.996-.995z"/></symbol><symbol id="icon-appmovistar" viewBox="0 0 25 19"><path d="M4.7 2.157c-1.158.018-3.295.575-4.274 4.467-.427 1.695-.588 3.464-.225 5.57.337 1.941.93 3.614 1.334 4.54.139.318.35.651.516.851.476.588 1.266.552 1.603.388.364-.173.781-.597.629-1.554-.072-.465-.283-1.144-.405-1.523-.363-1.157-.848-2.557-.889-3.55-.058-1.331.48-1.509.84-1.582.602-.127 1.105.515 1.585 1.322.57.962 1.549 2.671 2.348 3.974.723 1.176 2.052 2.439 4.19 2.352 2.177-.086 3.784-.898 4.61-3.454.62-1.91 1.042-3.337 1.72-4.8.78-1.682 1.823-2.58 2.698-2.306.813.255 1.02 1.03 1.028 2.174.01 1.012-.112 2.124-.202 2.94-.036.296-.094.893-.072 1.226.05.652.337 1.303 1.091 1.408.8.11 1.446-.515 1.702-1.267.103-.296.188-.752.233-1.076.234-1.631.297-2.73.189-4.398-.126-1.95-.516-3.733-1.199-5.273-.655-1.472-1.701-2.42-3.048-2.503-1.491-.09-3.202.871-4.1 2.744-.826 1.728-1.49 3.496-1.89 4.403-.408.916-1.005 1.481-1.926 1.577-1.127.114-2.092-.679-2.801-1.818-.62-.99-1.846-2.876-2.501-3.51-.615-.597-1.32-1.345-2.784-1.322z"/></symbol><symbol id="icon-arrow-down" viewBox="0 0 1024 1024"><path d="M104.704 338.752a64 64 0 0190.496 0l316.8 316.8 316.8-316.8a64 64 0 0190.496 90.496L557.248 791.296a64 64 0 01-90.496 0L104.704 429.248a64 64 0 010-90.496z"/></symbol><symbol id="icon-caeq" viewBox="0 0 24 24"><path fill-rule="evenodd" clip-rule="evenodd" d="M2.836 20h4.328c.256 0 .428-.029.54-.063.17-.053.213-.11.25-.231.024-.08.046-.203.046-.39v-7.633c0-.405-.1-.505-.129-.531-.043-.04-.203-.152-.707-.152H2.836c-.25 0-.417.03-.527.065-.174.057-.233.126-.272.276-.02.077-.037.187-.037.342v7.634c0 .212.028.343.056.42.034.09.071.14.209.19.11.038.289.073.57.073zm0 1h4.328c.324 0 .602-.036.836-.108.472-.146.77-.44.91-.892.06-.197.09-.424.09-.683v-7.634c0-.573-.147-.986-.45-1.267-.305-.28-.757-.416-1.386-.416H2.836c-.323 0-.6.038-.836.114-.487.158-.8.482-.93.97-.047.177-.07.377-.07.6v7.633c0 .295.039.548.117.762.14.386.41.647.814.79.248.088.548.131.905.131z"/><path d="M4.5 18c-.303 0-.5.16-.5.5 0 .164.046.285.126.367.088.09.216.133.375.133.158 0 .287-.044.374-.133.081-.082.125-.203.125-.367 0-.34-.196-.5-.5-.5z"/><path fill-rule="evenodd" clip-rule="evenodd" d="M13.754 19.8h6.493c.264 0 .478-.021.651-.056.301-.06.463-.158.558-.246.093-.085.19-.224.26-.485.05-.189.084-.439.084-.767V5.754c0-.764-.179-1.077-.327-1.226-.146-.147-.458-.328-1.226-.328h-6.493c-.388 0-.662.05-.854.118a.87.87 0 00-.582.582c-.068.192-.118.467-.118.854v12.492c0 .472.07.778.153.972.1.23.244.372.53.468.196.066.475.114.87.114zm0 1.2h6.493c.327 0 .622-.026.888-.08.937-.189 1.506-.715 1.741-1.599.083-.312.124-.669.124-1.075V5.754c0-.937-.22-1.614-.676-2.072-.456-.46-1.135-.682-2.078-.682h-6.492c-.485 0-.901.062-1.254.187A2.064 2.064 0 0011.186 4.5c-.124.353-.186.77-.186 1.254v12.492c0 .58.083 1.06.253 1.45.24.553.652.927 1.247 1.127.351.119.768.177 1.254.177z"/><path d="M17.002 17c-.607 0-1.002.319-1.002 1 0 .329.091.57.253.735.175.178.432.265.749.265s.573-.087.748-.265c.162-.165.25-.406.25-.735 0-.681-.391-1-.998-1zM7.017 6.307a.45.45 0 01-.295-.793c.156-.134.322-.276.47-.406H6.41c-.736 0-1.286.168-1.631.501-.358.346-.54.907-.54 1.673v.892a.45.45 0 11-.902 0v-.892c0-1.018.273-1.802.817-2.321.52-.499 1.277-.754 2.256-.754h.795a51.437 51.437 0 00-.44-.38l-.04-.034a.448.448 0 01-.05-.634.448.448 0 01.633-.051l.058.05c.181.156.73.627.957.854.4.402.403.898.006 1.294-.105.106-.576.513-.848.748l-.17.147a.476.476 0 01-.294.106z"/></symbol><symbol id="icon-cambiar-plan" viewBox="0 0 24 24"><path d="M19.925 21h-8.358c-.676 0-1.096-.423-1.096-1.102V5.085c0-.667.42-1.082 1.093-1.085h5.215c.15 0 .292.059.396.165l4.374 4.375a.551.551 0 01.165.395v10.988c0 .21-.02.483-.182.71-.118.165-.35.364-.794.364-.269.003-.54.003-.813.003zm.668-1.122V9.17l-4.046-4.046h-4.955v14.754h9z"/><path d="M19 12.21h-5.815a.562.562 0 01-.56-.561c0-.309.251-.56.56-.56H19c.308 0 .56.251.56.56 0 .308-.252.56-.56.56zm0 2.739h-5.815a.562.562 0 01-.56-.56c0-.31.251-.561.56-.561H19c.308 0 .56.252.56.56 0 .309-.252.561-.56.561zm0 2.756h-5.815a.562.562 0 01-.56-.56c0-.309.251-.561.56-.561H19c.308 0 .56.252.56.56 0 .309-.252.561-.56.561zM7.496 8.567a.42.42 0 01-.275-.74c.387-.33.833-.72.906-.79l.005-.006-.011-.014c-.224-.224-.892-.79-.897-.796a.419.419 0 01-.048-.592.419.419 0 01.592-.048c.028.025.698.595.947.844.373.376.376.839.006 1.209-.126.126-.816.717-.95.835a.445.445 0 01-.275.098z"/><path d="M4.481 10.732a.42.42 0 01-.42-.42v-.833c0-.95.255-1.683.763-2.168.485-.465 1.191-.704 2.105-.704h1.234a.42.42 0 110 .842H6.929c-.687 0-1.2.157-1.522.468-.334.322-.505.847-.505 1.562v.832a.42.42 0 01-.42.421zM5.62 20.98H2.852c-.51 0-.852-.345-.852-.858v-8.165c0-.499.35-.85.852-.85h3.292c.149 0 .292.06.398.163l2.431 2.431a.551.551 0 01.166.396v6.037c0 .496-.345.84-.841.84l-2.678.006zM3.122 19.86h4.892v-5.527L5.911 12.23h-2.79v7.63z"/><path d="M7.123 16.228H4.024a.42.42 0 110-.842h3.099a.42.42 0 110 .842zm0 1.458H4.024a.42.42 0 110-.842h3.099a.42.42 0 110 .842zm0 1.458H4.024a.42.42 0 110-.842h3.099a.42.42 0 110 .842zm1.147-4.316h-.973c-.6 0-1.069-.165-1.391-.487-.323-.323-.488-.791-.488-1.391v-.973a.42.42 0 11.841 0v.973c0 .737.3 1.037 1.038 1.037h.973a.42.42 0 110 .841zm12.883-5.33h-2.187c-.824 0-1.517-.258-2.004-.746-.488-.487-.743-1.18-.743-2.002V4.563a.56.56 0 111.121 0V6.75c0 .52.143.937.415 1.209s.69.418 1.211.418h2.187c.309 0 .561.252.561.56 0 .309-.252.561-.56.561z"/></symbol><symbol id="icon-close" viewBox="0 0 12 12"><path clip-rule="evenodd" d="M6 7.487L1.487 12 0 10.513 4.513 6 0 1.487 1.487 0 6 4.513 10.513 0 12 1.487 7.487 6 12 10.513 10.513 12 6 7.487z" fill-rule="evenodd"/></symbol><symbol id="icon-facebook" viewBox="0 0 14 14"><path d="M12.05.333H1.994c-.923 0-1.66.738-1.66 1.707v10.148c0 .923.737 1.707 1.66 1.707h5.028V9.236h-1.66V7.114h1.66V5.408c0-1.384 1.107-2.538 2.49-2.538h1.662v2.122h-.83c-.462 0-.831-.046-.831.416v1.706h2.076l-.83 2.122H9.512v4.66h2.49c.924 0 1.662-.739 1.662-1.708V2.04A1.626 1.626 0 0012.05.333z"/></symbol><symbol id="icon-fiber" viewBox="0 0 24 24"><path d="M12 22c-3.172 0-5.644-.83-7.343-2.467C2.893 17.833 2 15.297 2 12c0-3.297.893-5.832 2.657-7.533C6.356 2.83 8.827 2 12 2c3.172 0 5.644.83 7.343 2.467C21.107 6.165 22 8.7 22 12c0 3.3-.893 5.832-2.657 7.533C17.644 21.17 15.173 22 12 22zm0-18.862c-2.868 0-5.073.723-6.552 2.148C3.915 6.762 3.138 9.02 3.138 12c0 2.979.777 5.235 2.31 6.714 1.48 1.425 3.684 2.148 6.552 2.148 2.868 0 5.073-.723 6.552-2.148 1.533-1.476 2.31-3.735 2.31-6.714 0-2.979-.777-5.235-2.31-6.714C17.072 3.86 14.868 3.138 12 3.138z"/><path d="M5.966 20.472a.57.57 0 01-.402-.973l3.093-3.052-.612-.62-.614-.62-2.973 2.93a.57.57 0 01-.814-.797l.014-.014 3.377-3.332A.568.568 0 017.84 14l.197.2c.685-1.364 1.397-3.375 1.59-6.046a1.374 1.374 0 01-.464-.322c-.276-.287-.415-.665-.415-1.126 0-.461.14-.837.415-1.127a1.471 1.471 0 011.084-.444c.43 0 .805.154 1.084.444.279.29.415.669.415 1.127 0 .458-.139.836-.415 1.126-.156.165-.353.29-.569.362-.153 2.162-.626 3.928-1.17 5.297l4.937-4.876a1.375 1.375 0 01-.117-.604c.012-.398.182-.762.512-1.086.33-.325.694-.492 1.093-.501.404-.011.78.142 1.084.444.304.301.463.677.452 1.08-.011.4-.182.763-.512 1.088-.33.324-.694.489-1.093.5a1.428 1.428 0 01-.614-.12l-4.842 4.78c1.351-.517 3.07-.967 5.158-1.115.074-.216.196-.412.361-.569.288-.276.666-.415 1.127-.415.46 0 .839.142 1.126.418.288.276.444.654.444 1.084 0 .43-.153.805-.444 1.087-.29.281-.665.415-1.126.415-.461 0-.837-.142-1.127-.415a1.417 1.417 0 01-.321-.464c-2.68.194-4.694.91-6.06 1.599l.227.23a.567.567 0 01-.005.805L6.367 20.31a.57.57 0 01-.401.162zm10.75-6.856c.003.145.049.208.095.25.025.026.105.1.338.1.233 0 .313-.074.339-.1.045-.045.093-.11.093-.264 0-.154-.048-.22-.093-.265-.026-.025-.106-.1-.339-.1-.233 0-.313.075-.338.1-.046.046-.094.111-.094.262v.011c-.003.003-.003.006 0 .006zm-1.05-5.331c.112.108.191.122.257.12.037 0 .15-.004.321-.174.171-.171.171-.274.174-.308.003-.06-.011-.136-.114-.239-.102-.102-.188-.12-.253-.116-.037 0-.15.003-.321.173-.171.17-.171.273-.174.307-.003.057.009.134.11.237zm-5.413-1.147c.15 0 .216-.048.262-.094.025-.025.1-.102.1-.338 0-.236-.075-.313-.1-.339-.046-.045-.111-.094-.265-.094-.153 0-.219.049-.264.094-.026.026-.1.103-.1.339 0 .236.074.313.1.338.042.046.105.091.25.094h.017z"/></symbol><symbol id="icon-instagram" viewBox="0 0 1024 1024"><path d="M512 378.7c-73.4 0-133.3 59.9-133.3 133.3S438.6 645.3 512 645.3 645.3 585.4 645.3 512 585.4 378.7 512 378.7zM911.8 512c0-55.2.5-109.9-2.6-165-3.1-64-17.7-120.8-64.5-167.6-46.9-46.9-103.6-61.4-167.6-64.5-55.2-3.1-109.9-2.6-165-2.6-55.2 0-109.9-.5-165 2.6-64 3.1-120.8 17.7-167.6 64.5C132.6 226.3 118.1 283 115 347c-3.1 55.2-2.6 109.9-2.6 165s-.5 109.9 2.6 165c3.1 64 17.7 120.8 64.5 167.6 46.9 46.9 103.6 61.4 167.6 64.5 55.2 3.1 109.9 2.6 165 2.6 55.2 0 109.9.5 165-2.6 64-3.1 120.8-17.7 167.6-64.5 46.9-46.9 61.4-103.6 64.5-167.6 3.2-55.1 2.6-109.8 2.6-165zM512 717.1c-113.5 0-205.1-91.6-205.1-205.1S398.5 306.9 512 306.9 717.1 398.5 717.1 512 625.5 717.1 512 717.1zm213.5-370.7c-26.5 0-47.9-21.4-47.9-47.9s21.4-47.9 47.9-47.9 47.9 21.4 47.9 47.9a47.84 47.84 0 01-47.9 47.9z"/></symbol><symbol id="icon-libro_reclamacion" viewBox="0 0 16 12"><path d="M1.8 1.065C1.8.177 3.462-.285 4.358.19l2.109 1.142H1.804v6.24c0 .522.236 1.017.642 1.346L6.251 12H1.333A1.333 1.333 0 010 10.667v-8c0-.737.597-1.334 1.333-1.334H1.8v-.268z"/><path fill-rule="evenodd" clip-rule="evenodd" d="M2.604 1.333h3.883v9.829L2.95 8.297a.933.933 0 01-.346-.726V1.333zM3.688 6.75a.4.4 0 00.062.562l1.667 1.334a.4.4 0 00.5-.625L4.25 6.688a.4.4 0 00-.562.062zm2.219-1.07a.4.4 0 11-.48.64l-1.334-1a.4.4 0 11.48-.64l1.334 1zM3.675 2.1a.4.4 0 00.092.558l1.666 1.196a.4.4 0 10.467-.65L4.233 2.008a.4.4 0 00-.558.092zM7.287 11.996V12h4.602c.736 0 1.333-.597 1.333-1.333V9.399a.513.513 0 00.123-.09v-.001l.044-.043c.314-.312 2.162-2.147 2.294-2.292.198-.221.317-.51.317-.83 0-.304-.103-.596-.287-.819a1.031 1.031 0 00-.708-.38.96.96 0 00-.785.316c-.324.338-.66.662-.998.983V2.667c0-.737-.597-1.334-1.333-1.334H7.287v10.663zm4.06-2.558a.4.4 0 00-.329-.171H8.264a.4.4 0 100 .8h2.755a.4.4 0 00.397-.446.614.614 0 01-.07-.183zM7.864 6.75c0-.22.179-.4.4-.4h2.204a.4.4 0 010 .8H8.264a.4.4 0 01-.4-.4zm0-2.917c0-.22.179-.4.4-.4h3.306a.4.4 0 010 .8H8.264a.4.4 0 01-.4-.4zm7.076 1.909c.04.003.1.025.157.093.059.071.103.18.103.308 0 .115-.04.213-.108.29l-.003.003c.001-.001 0 0 0 0l-.026.027-.075.077a306.705 306.705 0 01-.961.963l-1.2 1.193-.566.21.243-.812a1.335 1.335 0 01.084-.139c.261-.258.547-.528.84-.805.461-.436.94-.889 1.37-1.337a.23.23 0 01.092-.065.127.127 0 01.05-.006z"/></symbol><symbol id="icon-mobile" viewBox="0 0 24 24"><path d="M15.492 22H8.508c-1.179 0-2.038-.27-2.626-.825-.594-.56-.881-1.386-.881-2.518V5.343c0-1.104.287-1.915.878-2.487C6.475 2.282 7.334 2 8.508 2h6.985c1.182 0 2.041.273 2.632.84.591.565.875 1.382.875 2.503v13.314c0 1.133-.29 1.957-.88 2.518-.592.555-1.448.825-2.628.825zM8.508 3.138c-1.641 0-2.313.64-2.313 2.205v13.314c0 1.608.627 2.205 2.313 2.205h6.986c1.686 0 2.313-.597 2.313-2.205V5.343c0-.805-.173-1.363-.525-1.701-.353-.339-.94-.504-1.788-.504H8.506z"/><path d="M12 17.647c-.537 0-.887.27-.887.848 0 .279.081.484.224.623.155.15.382.225.663.225.28 0 .508-.074.663-.225.143-.14.224-.347.224-.623-.003-.578-.35-.848-.887-.848z"/><path d="M12 19.63c-.364 0-.669-.108-.875-.31-.206-.202-.307-.478-.307-.822 0-.709.442-1.132 1.185-1.132.743 0 1.182.424 1.182 1.132 0 .347-.104.623-.307.822-.203.2-.514.31-.878.31zm0-1.695c-.406 0-.588.173-.588.563 0 .193.048.336.137.424.09.088.245.14.448.14s.355-.046.448-.14c.092-.094.137-.233.137-.424.003-.39-.176-.566-.582-.563z"/></symbol><symbol id="icon-prepago" viewBox="0 0 24 24"><path d="M6.433 12.111c-.074-.051-.108-.108-.108-.196a.206.206 0 01.21-.202.3.3 0 01.154.05c.328.217.783.436 1.312.436.79 0 1.274-.407 1.274-1.007 0-.492-.276-.842-1.18-.956l-.234-.028c-.964-.123-1.413-.586-1.413-1.306 0-.856.608-1.386 1.544-1.386.524 0 .965.137 1.27.328.093.056.136.13.136.202a.194.194 0 01-.194.196h-.003a.33.33 0 01-.145-.043 2.202 2.202 0 00-1.08-.29c-.718 0-1.119.398-1.119.956 0 .506.313.833 1.16.942l.226.028c.981.122 1.445.586 1.445 1.326 0 .833-.595 1.428-1.741 1.428a2.718 2.718 0 01-1.514-.478z"/><path d="M7.95 12.802a2.936 2.936 0 01-1.638-.517.43.43 0 01-.2-.37.418.418 0 01.425-.416c.096.003.19.032.27.086.398.264.8.398 1.195.398.654 0 1.061-.304 1.061-.794 0-.321-.12-.634-.996-.745l-.23-.029c-1.323-.17-1.602-.918-1.602-1.516 0-.97.691-1.599 1.758-1.599.518 0 1.007.128 1.383.359.208.128.239.296.239.384 0 .227-.182.41-.41.41a.526.526 0 01-.239-.066l-.005-.003a1.994 1.994 0 00-.98-.264c-.565 0-.904.278-.904.742 0 .196 0 .606.973.731l.225.029c1.346.17 1.63.93 1.63 1.539 0 .486-.18.896-.515 1.19-.344.295-.84.451-1.44.451zm-1.393-.867c.108.076.224.142.344.199a2.842 2.842 0 01-.333-.196.057.057 0 00-.023-.012l.012.009zM8.5 10.09c.418.106.702.288.856.55-.19-.348-.569-.487-.856-.55zm-1.77-.785c.12.31.393.515.828.626-.424-.122-.697-.327-.828-.626z"/><path d="M8.008 13.466a.356.356 0 01-.356-.356V7.008a.356.356 0 01.711 0v6.102c0 .196-.159.356-.355.356z"/><path d="M8.007 15.059c-1.582 0-2.816-.418-3.67-1.24C3.45 12.961 3 11.695 3 10.05c0-1.644.45-2.91 1.337-3.766.854-.822 2.088-1.24 3.67-1.24 1.582 0 2.817.418 3.67 1.24.888.856 1.337 2.122 1.337 3.767 0 1.644-.45 2.91-1.337 3.766-.853.822-2.088 1.24-3.67 1.24zm0-8.877c-1.277 0-2.245.31-2.879.922-.657.632-.99 1.625-.99 2.948 0 1.322.333 2.315.99 2.947.634.612 1.605.922 2.88.922 1.274 0 2.244-.31 2.878-.922.657-.632.99-1.625.99-2.947 0-1.323-.333-2.316-.99-2.948-.634-.611-1.601-.922-2.879-.922z"/><path d="M17.435 22h-6.657c-1.124 0-1.943-.27-2.504-.825-.566-.56-.84-1.386-.84-2.518v-3.84a.57.57 0 01.57-.57.57.57 0 01.569.57v3.84c0 1.608.597 2.205 2.205 2.205h6.657c1.607 0 2.205-.597 2.205-2.205V5.343c0-.805-.165-1.363-.501-1.701-.336-.339-.896-.504-1.704-.504h-6.657c-1.565 0-2.205.64-2.205 2.205a.57.57 0 01-.57.569.57.57 0 01-.568-.57c0-1.103.273-1.914.836-2.486C8.843 2.282 9.662 2 10.778 2h6.657c1.126 0 1.946.273 2.51.84.562.565.833 1.382.833 2.503v13.314c0 1.133-.276 1.957-.84 2.518-.56.555-1.38.825-2.503.825z"/><path d="M14.106 17.647c-.512 0-.845.27-.845.848 0 .279.077.483.214.623.148.15.364.225.631.225.268 0 .484-.074.632-.225.136-.14.213-.347.213-.623 0-.578-.333-.848-.845-.848z"/><path d="M14.107 19.63c-.347 0-.637-.108-.833-.31-.197-.203-.293-.479-.293-.823 0-.708.42-1.132 1.129-1.132.708 0 1.13.424 1.13 1.132 0 .347-.1.623-.294.823-.193.199-.489.31-.839.31zm0-1.696c-.387 0-.56.174-.56.563 0 .194.045.336.13.424.086.088.234.14.427.14.194 0 .339-.046.427-.14.088-.094.13-.233.13-.424.007-.39-.167-.566-.554-.563z"/></symbol><symbol id="icon-twitter" viewBox="0 0 16 12"><path d="M15.177 1.356a6.682 6.682 0 01-1.707.502A2.882 2.882 0 0014.775.2c-.552.351-1.205.602-1.907.753A2.886 2.886 0 0010.708 0C9.053 0 7.747 1.356 7.747 3.013c0 .25 0 .451.05.702-2.46-.1-4.669-1.305-6.125-3.163a3.067 3.067 0 00-.402 1.507c0 1.054.553 1.958 1.306 2.51-.502 0-.954-.15-1.356-.351v.05c0 1.456 1.054 2.711 2.41 2.962-.251.05-.502.1-.803.1-.201 0-.402 0-.553-.05a3.083 3.083 0 002.812 2.11 5.966 5.966 0 01-3.715 1.305c-.251 0-.502 0-.703-.05A8.415 8.415 0 005.236 12c5.473 0 8.485-4.62 8.485-8.586v-.401c.552-.553 1.054-1.055 1.456-1.657z"/></symbol><symbol id="icon-youtube" viewBox="0 0 50 50"><path d="M44.898 14.5c-.398-2.2-2.296-3.8-4.5-4.3C37.102 9.5 31 9 24.398 9c-6.597 0-12.796.5-16.097 1.2-2.2.5-4.102 2-4.5 4.3C3.398 17 3 20.5 3 25s.398 8 .898 10.5c.403 2.2 2.301 3.8 4.5 4.3 3.5.7 9.5 1.2 16.102 1.2s12.602-.5 16.102-1.2c2.199-.5 4.097-2 4.5-4.3.398-2.5.898-6.102 1-10.5-.204-4.5-.704-8-1.204-10.5zM19 32V18l12.2 7z"/></symbol></svg>