<svg width="18" height="18" viewBox="0 0 18 18" fill="none" xmlns="http://www.w3.org/2000/svg">
<path fill-rule="evenodd" clip-rule="evenodd" d="M9.78976 9.00008L17.1648 1.61318C17.3806 1.41161 17.3901 1.07488 17.1885 0.859079C17.1814 0.849593 17.1719 0.842479 17.1648 0.835365C16.9632 0.619568 16.6265 0.610082 16.4107 0.811651C16.4012 0.818765 16.3941 0.828251 16.387 0.835365L9.00008 8.21041L1.61318 0.835365C1.41161 0.619568 1.07488 0.610082 0.859079 0.811651C0.849593 0.818765 0.842479 0.828251 0.835365 0.835365C0.619568 1.03693 0.610082 1.37367 0.811651 1.58947C0.818765 1.59895 0.828251 1.60607 0.835365 1.61318L8.21041 9.00008L0.835365 16.387C0.619568 16.5886 0.610082 16.9253 0.811651 17.1411C0.818765 17.1506 0.828251 17.1577 0.835365 17.1648C0.937335 17.2715 1.07725 17.3332 1.22427 17.3308C1.3713 17.3332 1.51358 17.2715 1.61318 17.1648L9.00008 9.78976L16.387 17.1648C16.5886 17.3806 16.9253 17.3901 17.1411 17.1885C17.1506 17.1814 17.1577 17.1719 17.1648 17.1648C17.3806 16.9632 17.3901 16.6265 17.1885 16.4107C17.1814 16.4012 17.1719 16.3941 17.1648 16.387L9.78976 9.00008Z" fill="#0B2739"/>
</svg>
