<svg width="16" height="16" viewBox="0 0 16 16" fill="none" xmlns="http://www.w3.org/2000/svg">
<path d="M15.1772 3.35565C14.6249 3.60669 14.0726 3.75732 13.4701 3.85774C14.0726 3.50627 14.5747 2.90377 14.7755 2.20084C14.2232 2.55231 13.5705 2.80335 12.8676 2.95398C12.3153 2.35147 11.5621 2 10.7086 2C9.05168 2 7.74624 3.35565 7.74624 5.01255C7.74624 5.2636 7.74624 5.46444 7.79645 5.71548C5.3362 5.61507 3.127 4.41004 1.67093 2.5523C1.41989 3.00419 1.26926 3.50628 1.26926 4.05858C1.26926 5.11297 1.82155 6.01674 2.57469 6.56904C2.0726 6.56904 1.62072 6.41841 1.21904 6.21758V6.26778C1.21904 7.72385 2.27344 8.97908 3.62909 9.23013C3.37804 9.28034 3.12699 9.33054 2.82574 9.33054C2.6249 9.33054 2.42407 9.33054 2.27344 9.28033C2.67511 10.4854 3.77971 11.3389 5.08515 11.3891C4.08097 12.1925 2.77553 12.6946 1.36967 12.6946C1.11863 12.6946 0.867585 12.6946 0.666748 12.6443C1.97219 13.4979 3.57888 14 5.23578 14C10.7086 14 13.7211 9.38075 13.7211 5.41423C13.7211 5.2636 13.7211 5.16318 13.7211 5.01255C14.2734 4.46025 14.7755 3.95816 15.1772 3.35565Z" fill="#B6B7B7"/>
</svg>
