<svg width="24" height="24" viewBox="0 0 24 24" fill="none" xmlns="http://www.w3.org/2000/svg">
<path fill-rule="evenodd" clip-rule="evenodd" d="M20.6939 11.8136C20.7366 11.7197 20.7536 11.5775 20.6057 11.4324L12.3968 3.35439C12.2972 3.25765 12.1521 3.20074 11.9985 3.20074C11.8448 3.20074 11.6969 3.25765 11.6001 3.35439L3.39128 11.4324C3.24332 11.5775 3.26324 11.7197 3.30307 11.8136C3.36282 11.9474 3.51932 12.0925 3.78963 12.0925H4.81965C5.16963 12.0925 5.45701 12.3685 5.45701 12.7071V20.3611C5.45701 20.5859 5.68748 20.768 5.97202 20.768H17.9168C18.1985 20.768 18.429 20.5859 18.429 20.3611V12.7071C18.429 12.3685 18.7135 12.0925 19.0663 12.0925H20.213C20.4776 12.0925 20.637 11.9502 20.6939 11.8136ZM21.5162 10.5731C21.9914 11.0397 22.1251 11.697 21.869 12.2916C21.5959 12.9176 20.9443 13.3217 20.2102 13.3217H19.698V20.3639C19.698 21.2659 18.8985 22 17.914 22H5.96917C4.98468 22 4.18229 21.2659 4.18229 20.3639V13.3217H3.78678C3.05268 13.3217 2.40109 12.9176 2.12794 12.2916C1.87186 11.6998 2.00559 11.0425 2.48076 10.5731L10.6925 2.49509C11.364 1.83497 12.633 1.83497 13.3073 2.49509L21.5162 10.5731ZM11.9643 17.8942C12.3854 17.8885 12.3854 17.6608 12.3854 17.5243C12.3854 17.3877 12.3854 17.1601 12.0241 17.1515H11.9558C11.64 17.1544 11.6144 17.3336 11.6144 17.5214C11.6144 17.6665 11.6144 17.8913 11.9643 17.8942ZM12.0013 16.0874C12.7639 16.1073 13.4866 16.5568 13.4866 17.5243C13.4866 18.4974 12.7667 18.9441 12.0525 18.9583H11.9501C11.2359 18.9498 10.5132 18.5002 10.5132 17.5186C10.5132 16.5369 11.2331 16.0902 11.9473 16.0845C11.9473 16.0874 11.9985 16.0874 12.0013 16.0874ZM11.9416 8.82601C12.0497 8.81462 15.5353 8.64675 17.877 11.1763C18.1103 11.4295 18.0875 11.8165 17.8258 12.0441C17.7034 12.1494 17.5526 12.2006 17.4018 12.2006C17.2282 12.2006 17.0518 12.1323 16.9266 11.9957C15.0003 9.91578 12.0155 10.0495 11.9814 10.0524C8.76615 10.0865 7.07601 11.8478 7.05894 11.8648C6.82278 12.1152 6.42158 12.1323 6.15981 11.9075C5.89804 11.6799 5.87812 11.2929 6.11428 11.0397C6.20249 10.9515 8.20562 8.86584 11.9416 8.82601ZM11.9473 11.219C12.044 11.2104 14.8239 11.1222 16.5966 13.0371C16.8299 13.2904 16.8071 13.6773 16.5454 13.905C16.2807 14.1297 15.8824 14.1098 15.6462 13.8566C14.2833 12.3827 12.007 12.4481 11.9786 12.4481C9.71366 12.4738 8.35927 13.8737 8.34504 13.8879C8.21985 14.0216 8.04628 14.0871 7.87271 14.0871C7.72191 14.0871 7.56826 14.0359 7.44591 13.9277C7.18698 13.7001 7.16422 13.316 7.40038 13.0627C7.47152 12.9859 9.12467 11.2474 11.9473 11.219ZM11.9643 13.6631C12.0241 13.6631 13.8849 13.5948 15.0828 14.8866C15.3162 15.1398 15.2934 15.5268 15.0316 15.7544C14.7699 15.9792 14.3687 15.9593 14.1325 15.7061C13.35 14.8582 12.0155 14.8923 11.9985 14.8895C10.664 14.9037 9.89291 15.6918 9.86162 15.726C9.73642 15.8569 9.56285 15.9252 9.39213 15.9252C9.23848 15.9252 9.08483 15.8711 8.96248 15.7658C8.70356 15.5382 8.68364 15.1541 8.91696 14.9037C8.96533 14.8525 10.0779 13.683 11.9643 13.6631Z" fill="#019DF4"/>
</svg>
