<svg width="24" height="24" viewBox="0 0 24 24" fill="none" xmlns="http://www.w3.org/2000/svg">
<path fill-rule="evenodd" clip-rule="evenodd" d="M17.7285 2H21.004C21.5532 2 22 2.44678 22 2.99602V6.27149C22 6.82072 21.5532 7.2675 21.004 7.2675H17.7285C17.1793 7.2675 16.7325 6.82072 16.7325 6.27149V2.99602C16.7325 2.44678 17.1793 2 17.7285 2ZM10.3637 2H13.6392C14.1884 2 14.6352 2.44678 14.6352 2.99602V6.27149C14.6352 6.82072 14.1884 7.2675 13.6392 7.2675H10.3637C9.81446 7.2675 9.36767 6.82072 9.36767 6.27149V2.99602C9.36767 2.44678 9.81161 2 10.3637 2ZM2.99602 2H6.27149C6.82072 2 7.2675 2.44678 7.2675 2.99602V6.27149C7.2675 6.82072 6.82072 7.2675 6.27149 7.2675H2.99602C2.44678 7.2675 2 6.82072 2 6.27149V2.99602C2 2.44678 2.44678 2 2.99602 2ZM17.7285 9.36767H21.004C21.5532 9.36767 22 9.81446 22 10.3637V13.6392C22 14.1884 21.5532 14.6352 21.004 14.6352H17.7285C17.1793 14.6352 16.7325 14.1884 16.7325 13.6392V10.3637C16.7325 9.81161 17.1793 9.36767 17.7285 9.36767ZM10.3637 9.36767H13.6392C14.1884 9.36767 14.6352 9.81446 14.6352 10.3637V13.6392C14.6352 14.1884 14.1884 14.6352 13.6392 14.6352H10.3637C9.81446 14.6352 9.36767 14.1884 9.36767 13.6392V10.3637C9.36767 9.81161 9.81161 9.36767 10.3637 9.36767ZM2.99602 9.36767H6.27149C6.82072 9.36767 7.2675 9.81446 7.2675 10.3637V13.6392C7.2675 14.1884 6.82072 14.6352 6.27149 14.6352H2.99602C2.44678 14.6352 2 14.1884 2 13.6392V10.3637C2 9.81161 2.44678 9.36767 2.99602 9.36767ZM10.3637 16.7325H13.6392C14.1884 16.7325 14.6352 17.1793 14.6352 17.7285V21.004C14.6352 21.5532 14.1884 22 13.6392 22H10.3637C9.81446 22 9.36767 21.5532 9.36767 21.004V17.7285C9.36767 17.1793 9.81161 16.7325 10.3637 16.7325ZM17.7057 16.7325H20.9812C21.5304 16.7325 21.9772 17.1793 21.9772 17.7285V21.004C21.9772 21.5532 21.5304 22 20.9812 22H17.7057C17.1565 22 16.7097 21.5532 16.7097 21.004V17.7285C16.7097 17.1793 17.1537 16.7325 17.7057 16.7325ZM2.99602 16.7325H6.27149C6.82072 16.7325 7.2675 17.1793 7.2675 17.7285V21.004C7.2675 21.5532 6.82072 22 6.27149 22H2.99602C2.44678 22 2 21.5532 2 21.004V17.7285C2 17.1793 2.44678 16.7325 2.99602 16.7325Z" fill="#019DF4"/>
</svg>
