<svg width="24" height="24" viewBox="0 0 24 24" fill="none" xmlns="http://www.w3.org/2000/svg">
<path d="M18.1785 0.0822754H5.87289C2.72138 0.0822754 0.0751953 2.64954 0.0751953 5.81321L0.16397 18.1663C0.16397 21.3299 2.71796 23.8938 5.86948 23.8938H18.1751C21.3266 23.8938 23.8806 21.3299 23.8806 18.1663L23.7918 5.81321C23.7952 2.64954 21.33 0.0822754 18.1785 0.0822754Z" fill="#019DF4"/>
<path d="M18.1989 0H5.88988C2.68715 0 0 2.6084 0 5.82348L0.0887751 18.1765C0.0887751 21.3916 2.68715 24 5.88988 24H18.1989C21.4016 24 24 21.3916 24 18.1765L23.9112 5.82348C23.9112 2.6084 21.4016 0 18.1989 0ZM23.8088 18.1765C23.8088 21.2888 21.0568 23.8115 18.1955 23.8115H5.80111C2.70081 23.8115 0.191208 21.2888 0.191208 18.1765V5.82348C0.191208 2.71123 2.793 0.188518 5.88988 0.188518H18.1989C21.2992 0.188518 23.72 2.71123 23.72 5.82348L23.8088 18.1765Z" fill="#019DF4"/>
<path d="M6.0265 6.84844C5.14558 6.86215 3.52032 7.28032 2.77597 10.2075C2.4516 11.4825 2.32868 12.8124 2.60525 14.396C2.86133 15.8562 3.31204 17.1141 3.61933 17.8099C3.72518 18.0498 3.88566 18.3 4.01199 18.4508C4.37392 18.893 4.97486 18.8656 5.23094 18.7422C5.50751 18.6119 5.82505 18.2932 5.70896 17.5734C5.65433 17.2238 5.49385 16.7131 5.40166 16.4286C5.1251 15.558 4.75634 14.5057 4.72561 13.7585C4.68122 12.7576 5.09095 12.6239 5.36411 12.5691C5.82164 12.4731 6.20405 12.9564 6.5694 13.5631C7.00303 14.2863 7.74738 15.5717 8.35514 16.552C8.90487 17.4363 9.91554 18.3857 11.5408 18.3206C13.1968 18.2555 14.4192 17.6454 15.0474 15.7225C15.5186 14.2863 15.8396 13.2135 16.3551 12.1132C16.9493 10.8484 17.7414 10.1732 18.4072 10.3789C19.0252 10.5708 19.1823 11.1535 19.1891 12.0138C19.1959 12.7747 19.1038 13.6111 19.0355 14.2246C19.0082 14.4474 18.9638 14.8964 18.9808 15.1466C19.0184 15.6368 19.2369 16.1269 19.8105 16.2058C20.4183 16.288 20.91 15.8184 21.1046 15.2529C21.1831 15.0301 21.248 14.6873 21.2822 14.444C21.4597 13.2169 21.5075 12.3909 21.4256 11.1364C21.33 9.66935 21.0329 8.32916 20.5139 7.17063C20.0154 6.06352 19.2198 5.35058 18.1955 5.28888C17.0619 5.22033 15.761 5.94355 15.0781 7.35229C14.4499 8.65135 13.9446 9.98126 13.6407 10.6633C13.33 11.3523 12.8758 11.7773 12.1759 11.8493C11.3189 11.935 10.5848 11.3386 10.0453 10.4817C9.57409 9.7379 8.64195 8.31888 8.14345 7.84244C7.67567 7.39343 7.13961 6.8313 6.0265 6.84844Z" fill="white"/>
</svg>
