<svg width="24" height="24" viewBox="0 0 24 24" fill="none" xmlns="http://www.w3.org/2000/svg">
<path fill-rule="evenodd" clip-rule="evenodd" d="M19.9165 22H9.24086C8.51681 22 8.06641 21.5467 8.06641 20.8198V16.6311C7.41261 16.4006 6.81163 16.0584 6.2864 15.6272L2.98062 19.0607C2.87229 19.1719 2.72406 19.2346 2.57013 19.2346C2.25656 19.2346 2 18.9809 2 18.6645C2 18.5163 2.05701 18.3737 2.15964 18.2682L5.478 14.8217C4.63372 13.8006 4.12646 12.4905 4.12646 11.0617C4.12646 8.48911 5.77099 6.30144 8.06641 5.49239V4.94185V3.16876C8.06641 2.4504 8.51681 2.00285 9.23801 2H15.8629C16.0133 2 16.1581 2.05936 16.2635 2.16683L16.2644 2.16778L16.2648 2.16819L21.8232 7.7265L21.8247 7.72806C21.9323 7.83344 21.9917 7.97831 21.9917 8.12885V20.8455C21.9917 21.5439 21.5385 21.9943 20.8429 21.9971C20.535 22 20.2272 22 19.9165 22ZM10.0301 16.9654C9.75066 16.9654 9.47575 16.946 9.20666 16.9084V20.8597H20.8486V20.8483V8.70141H18.6419C17.6698 8.70141 16.8317 8.37929 16.2245 7.76926C15.6173 7.15923 15.2924 6.32399 15.2924 5.35193V3.82114V3.1431H9.20666V5.21503C9.47575 5.17749 9.75066 5.15809 10.0301 5.15809C13.2912 5.15809 15.9338 7.80062 15.9338 11.0617C15.9338 12.6267 15.3123 14.129 14.2034 15.2351C13.1002 16.3468 11.598 16.9682 10.0301 16.9654ZM16.8917 4.40923L16.4326 3.94989V5.35193C16.4326 6.01612 16.6379 6.572 17.0284 6.96538C17.4189 7.35877 17.9777 7.56401 18.639 7.56401H20.0415L16.8917 4.40923ZM10.0301 6.29834C7.39898 6.29834 5.26672 8.43346 5.26957 11.0646C5.26957 13.6957 7.40469 15.828 10.0358 15.8251C12.6669 15.8223 14.7964 13.69 14.7964 11.0589C14.7964 9.79606 14.2947 8.58454 13.3996 7.69229C12.5073 6.7972 11.2958 6.29264 10.0301 6.29834Z" fill="#019DF4"/>
</svg>
