<svg width="16" height="12" viewBox="0 0 16 12" fill="none" xmlns="http://www.w3.org/2000/svg">
<path d="M15.1772 1.35565C14.6249 1.60669 14.0726 1.75732 13.4701 1.85774C14.0726 1.50627 14.5747 0.90377 14.7755 0.200841C14.2232 0.552306 13.5705 0.803352 12.8676 0.953979C12.3153 0.351469 11.5621 0 10.7086 0C9.05168 0 7.74624 1.35565 7.74624 3.01255C7.74624 3.2636 7.74624 3.46444 7.79645 3.71548C5.3362 3.61507 3.127 2.41004 1.67093 0.552304C1.41989 1.00419 1.26926 1.50628 1.26926 2.05858C1.26926 3.11297 1.82155 4.01674 2.57469 4.56904C2.0726 4.56904 1.62072 4.41841 1.21904 4.21758V4.26778C1.21904 5.72385 2.27344 6.97908 3.62909 7.23013C3.37804 7.28034 3.12699 7.33054 2.82574 7.33054C2.6249 7.33054 2.42407 7.33054 2.27344 7.28033C2.67511 8.48535 3.77971 9.33891 5.08515 9.38912C4.08097 10.1925 2.77553 10.6946 1.36967 10.6946C1.11863 10.6946 0.867585 10.6946 0.666748 10.6443C1.97219 11.4979 3.57888 12 5.23578 12C10.7086 12 13.7211 7.38075 13.7211 3.41423C13.7211 3.2636 13.7211 3.16318 13.7211 3.01255C14.2734 2.46025 14.7755 1.95816 15.1772 1.35565Z" fill="#B6B7B7"/>
</svg>
