<svg width="24" height="24" viewBox="0 0 24 24" fill="none" xmlns="http://www.w3.org/2000/svg">
<path d="M17.6888 21.9951C16.9432 21.9951 16.1129 21.8389 15.2204 21.5265C13.2632 20.8449 11.0914 19.4504 8.93365 17.4965L9.69055 16.653C11.7353 18.5076 13.7744 19.8197 15.5904 20.453C17.1296 20.9897 18.3977 20.9983 19.1631 20.4729L19.197 20.4501C19.502 20.2286 19.7336 20.0383 19.8805 19.8821C20.5074 19.2232 20.8181 18.5928 20.8096 18.0106C20.7983 17.4454 20.499 16.8745 19.8918 16.2639C19.6573 16.0225 19.3947 15.8124 19.1066 15.6391L19.0897 15.6306C18.618 15.3352 18.169 15.2302 17.7114 15.3068C17.22 15.392 16.7145 15.6931 16.2033 16.2071C16.0592 16.3491 15.9265 16.5025 15.8051 16.6615C15.7853 16.6843 15.7655 16.707 15.7458 16.7269C15.5481 16.9086 15.2035 17.1159 14.6725 17.0591C14.3562 17.0251 14.0088 16.9029 13.6163 16.6899C13.0203 16.3633 12.303 15.8095 11.4275 15.0001L12.1928 14.1623C13.0006 14.9092 13.6445 15.4091 14.1585 15.6902C14.5313 15.8947 14.842 15.9771 14.9634 15.9061C15.1018 15.7272 15.2487 15.5596 15.4097 15.4006C16.0875 14.719 16.802 14.3072 17.5279 14.185C18.2537 14.0629 18.9795 14.2191 19.6828 14.6593C20.0527 14.8808 20.3916 15.1506 20.6938 15.4574C21.5072 16.2753 21.928 17.1245 21.9422 17.9878C21.9591 18.8796 21.5411 19.7827 20.7023 20.666C20.4086 20.9755 19.9963 21.2737 19.8635 21.3703L19.8466 21.3817C19.8381 21.3874 19.8296 21.393 19.8212 21.4015C19.2761 21.7793 18.5926 21.9781 17.7905 21.9923C17.7538 21.9951 17.7227 21.9951 17.6888 21.9951ZM6.47938 15.02C4.55324 12.8616 3.18065 10.6861 2.50848 8.72933C2.18933 7.7978 2.03683 6.93443 2.05095 6.16478C2.06789 5.36105 2.26559 4.6766 2.63839 4.13132L2.66663 4.08872C2.76548 3.9524 3.06203 3.54059 3.36987 3.24523C4.25104 2.3989 5.14915 1.97858 6.03597 1.99562C6.89172 2.01266 7.73899 2.43298 8.55238 3.25091C8.86022 3.55479 9.1257 3.8956 9.34882 4.26764C9.78375 4.97481 9.94191 5.7047 9.82047 6.43458C9.69903 7.16447 9.28951 7.883 8.61169 8.56461C8.45353 8.72649 8.2869 8.87417 8.10897 9.01333C8.03554 9.13829 8.12592 9.46206 8.34056 9.85398C8.63428 10.3851 9.15112 11.0468 9.91932 11.8818L9.09181 12.6543C8.26148 11.7511 7.69098 11.0156 7.3549 10.4049C7.13178 10.0017 7.00469 9.64666 6.96515 9.3229C6.90019 8.77761 7.10919 8.42261 7.29276 8.22096C7.31253 8.19824 7.33512 8.17836 7.35772 8.16132C7.5187 8.0392 7.66839 7.90572 7.81242 7.76088C8.32361 7.24683 8.62298 6.73847 8.70771 6.2443C8.78397 5.78706 8.67947 5.33265 8.38575 4.85837L8.37727 4.84133C8.205 4.55164 7.996 4.28752 7.75594 4.0518C7.1459 3.44403 6.57822 3.14299 6.0162 3.13163C5.43723 3.12027 4.81024 3.43551 4.15502 4.066C3.99968 4.21368 3.81046 4.44656 3.59016 4.75329L3.56475 4.78737C3.04791 5.55417 3.05073 6.82083 3.57887 8.36297C4.2002 10.1777 5.49371 12.2169 7.321 14.2646L6.47938 15.02Z" fill="#019DF4"/>
<path d="M17.8442 3.8161C18.0335 3.8161 18.0815 3.92686 17.9459 4.06318L17.2596 4.75331C17.1241 4.88963 17.0365 5.15376 17.0647 5.34404L17.206 6.33521C17.2342 6.52549 17.4093 6.70157 17.5985 6.72997L18.5842 6.87198C18.6068 6.87482 18.6322 6.87766 18.6548 6.87766C18.8327 6.87766 19.053 6.79529 19.1716 6.67601L19.8579 5.98589C19.9088 5.93193 19.9596 5.90921 19.9991 5.90921C20.0613 5.90921 20.1036 5.97169 20.1036 6.08813C20.1036 6.08813 20.1093 7.65298 19.4032 8.36299C18.7085 9.06164 17.1947 9.06732 17.1438 9.06732H17.141C16.9518 9.06732 16.6863 9.17808 16.5536 9.31156L8.6993 17.2012C8.56374 17.3375 8.45642 17.6045 8.45642 17.7947C8.45642 17.7947 8.46207 19.3596 7.756 20.0696C7.06124 20.7683 5.54744 20.7739 5.4966 20.7739C5.30737 20.7739 5.25936 20.6603 5.39493 20.5268L6.08122 19.8367C6.21678 19.7004 6.30434 19.4363 6.27609 19.246L6.13488 18.2548C6.10664 18.0645 5.93153 17.8885 5.74231 17.8601L4.75664 17.7181C4.73405 17.7152 4.70863 17.7124 4.68604 17.7124C4.50811 17.7124 4.28782 17.7947 4.1692 17.914L3.48008 18.607C3.42925 18.6581 3.37841 18.6837 3.33887 18.6837C3.27674 18.6837 3.23437 18.6212 3.23437 18.5047C3.23437 18.5047 3.22872 16.9399 3.93479 16.2299C4.62955 15.5312 6.14335 15.5256 6.19419 15.5256H6.19984C6.38906 15.5256 6.65454 15.4148 6.79011 15.2813L14.6359 7.38886C14.7714 7.25254 14.8788 6.98558 14.8788 6.79529C14.8788 6.79529 14.8731 5.23044 15.5792 4.52043C16.2768 3.82178 17.7906 3.8161 17.8442 3.8161ZM17.8414 2.68009C17.4743 2.68577 17.1071 2.72269 16.7456 2.79085C15.8955 2.94989 15.2375 3.2623 14.7827 3.71954C14.3252 4.17963 14.0117 4.85555 13.8536 5.7246C13.7971 6.03985 13.7632 6.35509 13.7519 6.67601L6.0784 14.3924C5.75078 14.4037 5.42317 14.4407 5.1012 14.5003C4.25393 14.6593 3.59305 14.9717 3.13835 15.4262C2.68082 15.8862 2.36733 16.5622 2.21199 17.4312C2.14703 17.7862 2.11314 18.1497 2.10749 18.5104C2.10467 18.7632 2.17245 19.0131 2.30237 19.229C2.41087 19.4093 2.5638 19.5583 2.74636 19.6618C2.92892 19.7653 3.13495 19.8197 3.34452 19.8197C3.68625 19.8197 4.02234 19.6748 4.28499 19.4079L4.81595 18.8739L5.08991 18.9137L5.12945 19.1892L4.59284 19.7231C4.20309 20.115 4.08165 20.6546 4.27652 21.1318C4.4714 21.6089 4.9374 21.9071 5.48813 21.9071H5.49378C5.86375 21.9014 6.23091 21.8645 6.59241 21.7963C7.44251 21.6373 8.10056 21.3249 8.55527 20.8677C9.0128 20.4076 9.32629 19.7316 9.48445 18.8654C9.54093 18.5502 9.57482 18.2349 9.58612 17.914L17.2624 10.1948C17.5901 10.1835 17.9148 10.1465 18.2368 10.0869C19.0869 9.92785 19.745 9.61545 20.1997 9.16104C20.6572 8.70096 20.9707 8.02503 21.126 7.15598C21.191 6.80097 21.2249 6.43745 21.2305 6.07677C21.2333 5.824 21.1656 5.57408 21.0356 5.3554C20.8154 4.98903 20.42 4.76467 19.9963 4.76467C19.6546 4.76467 19.3185 4.90951 19.0558 5.17648L18.5249 5.71608L18.2509 5.67632L18.2114 5.40368L18.7423 4.86975C19.1321 4.47783 19.2535 3.93538 19.0587 3.45826C18.8638 2.98113 18.3978 2.68293 17.8471 2.68009H17.8414Z" fill="#019DF4"/>
</svg>
