<svg width="24" height="24" viewBox="0 0 24 24" fill="none" xmlns="http://www.w3.org/2000/svg">
<path d="M13.7401 18.5468C13.6661 18.4956 13.6292 18.4358 13.6292 18.3476C13.632 18.231 13.7287 18.14 13.8425 18.14C13.8994 18.1428 13.9506 18.1599 13.999 18.1912C14.3319 18.4131 14.7984 18.635 15.339 18.635C16.1469 18.635 16.642 18.2196 16.642 17.6051C16.642 17.1016 16.3603 16.7459 15.4357 16.6293L15.1996 16.6008C14.2152 16.4757 13.7572 16.0006 13.7572 15.2694C13.7572 14.396 14.3802 13.8555 15.3333 13.8555C15.8653 13.8555 16.3176 13.9949 16.6277 14.1883C16.7245 14.2481 16.7671 14.322 16.7671 14.396C16.7671 14.507 16.6789 14.5952 16.568 14.5952C16.5168 14.5923 16.4656 14.5752 16.42 14.5496C16.0787 14.3647 15.723 14.2538 15.3162 14.2538C14.5822 14.2538 14.1782 14.6606 14.1782 15.2296C14.1782 15.7474 14.4969 16.0802 15.3617 16.1912L15.5922 16.2196C16.5907 16.3448 17.0658 16.8199 17.0658 17.5738C17.0658 18.4245 16.4599 19.0304 15.2906 19.0304C14.733 19.0304 14.1953 18.8626 13.7401 18.5468Z" fill="#019DF4"/>
<path d="M15.2875 19.2484C14.6901 19.2427 14.1097 19.0607 13.6175 18.7221C13.4838 18.6282 13.4155 18.503 13.4155 18.3466C13.4184 18.1133 13.609 17.9255 13.8423 17.9255C13.939 17.9284 14.0357 17.9597 14.1154 18.0137C14.5222 18.284 14.9319 18.4205 15.3359 18.4205C16.0073 18.4205 16.4255 18.1076 16.4255 17.604C16.4255 17.274 16.3032 16.9525 15.407 16.8388L15.1709 16.8103C13.8224 16.6396 13.5407 15.8743 13.5407 15.2655C13.5407 14.2783 14.2434 13.6382 15.3302 13.6382C15.8565 13.6382 16.3572 13.7662 16.7384 14.0023C16.949 14.1304 16.9802 14.3011 16.9802 14.3921C16.9802 14.6197 16.7953 14.8046 16.5677 14.8046C16.4824 14.8018 16.3999 14.779 16.3231 14.7363L16.3174 14.7335C15.9788 14.5486 15.6602 14.4632 15.316 14.4632C14.7356 14.4632 14.3913 14.7477 14.3913 15.2257C14.3913 15.5329 14.5108 15.8629 15.3899 15.9767L15.6204 16.0052C16.9916 16.1787 17.279 16.9525 17.279 17.5699C17.279 18.0649 17.0969 18.4831 16.7555 18.779C16.4027 19.0891 15.8963 19.2484 15.2875 19.2484ZM13.8622 18.3722C14.0528 18.503 14.2576 18.6083 14.4767 18.6823C14.2662 18.5998 14.067 18.4945 13.8821 18.3693C13.8707 18.3608 13.8565 18.3551 13.8451 18.3523V18.3551C13.848 18.3608 13.8536 18.3665 13.8622 18.3722ZM15.6204 16.4405C16.3373 16.5628 16.7356 16.8672 16.8323 17.3594C16.71 16.6254 15.9532 16.486 15.6204 16.4405ZM13.976 15.4277C14.0414 15.9682 14.4397 16.2811 15.1965 16.3836C14.4568 16.2612 14.0556 15.9483 13.976 15.4277Z" fill="#019DF4"/>
<path d="M15.3216 19.9511C15.0855 19.9511 14.8949 19.7605 14.8949 19.5244V13.3651C14.8949 13.129 15.0855 12.9383 15.3216 12.9383C15.5578 12.9383 15.7484 13.129 15.7484 13.3651V19.5244C15.7484 19.7605 15.5578 19.9511 15.3216 19.9511ZM8.45961 19.752C8.14667 19.752 7.89062 19.4959 7.89062 19.183V7.57845C7.89062 7.26551 8.14667 7.00946 8.45961 7.00946C8.77256 7.00946 9.0286 7.26551 9.0286 7.57845V19.183C9.0286 19.4959 8.77256 19.752 8.45961 19.752ZM11.2619 19.7662C10.9489 19.7662 10.6929 19.5102 10.6929 19.1972V12.0308C10.6929 11.7179 10.9489 11.4618 11.2619 11.4618C11.5748 11.4618 11.8309 11.7179 11.8309 12.0308V19.1972C11.8309 19.513 11.5777 19.7662 11.2619 19.7662ZM18.8835 8.95541H16.1097C15.1396 8.95541 14.3031 8.63393 13.6972 8.02511C13.0912 7.41629 12.7669 6.58272 12.7669 5.61259V2.83877C12.7669 2.52582 13.0229 2.26978 13.3359 2.26978C13.6488 2.26978 13.9049 2.52582 13.9049 2.83877V5.61259C13.9049 6.27547 14.1125 6.83023 14.5023 7.21999C14.892 7.60975 15.4497 7.81743 16.1097 7.81743H18.8835C19.1965 7.81743 19.4525 8.07347 19.4525 8.38642C19.4525 8.69936 19.1993 8.95541 18.8835 8.95541Z" fill="#019DF4"/>
<path d="M18.6131 22H6.12376C5.52632 22 5 21.4737 5 20.8762V3.12376C5 2.54623 5.54623 2 6.12376 2H13.6202C13.7653 2 13.9075 2.0569 14.0128 2.15647L19.5605 7.41963C19.6743 7.52774 19.7368 7.67568 19.7368 7.83215V20.8762C19.7368 21.4737 19.2105 22 18.6131 22ZM6.1522 20.862H18.5932L18.5989 20.8563V8.07681L13.3926 3.13798H6.16074C6.1522 3.14367 6.14367 3.1522 6.13798 3.16074V20.8506C6.14082 20.8535 6.14651 20.8592 6.1522 20.862Z" fill="#019DF4"/>
</svg>
