<svg width="16" height="16" viewBox="0 0 16 16" fill="none" xmlns="http://www.w3.org/2000/svg">
<path d="M12.3225 1.6792H4.08933C2.77521 1.6792 1.70605 2.74835 1.70605 4.06249V12.2957C1.70605 13.6097 2.77521 14.6792 4.08933 14.6792H12.3225C13.6366 14.6792 14.7061 13.6102 14.7061 12.2957V4.06249C14.7061 2.74835 13.637 1.6792 12.3225 1.6792ZM8.20592 12.4588C5.84633 12.4588 3.92653 10.5389 3.92653 8.17903C3.92653 5.81948 5.84633 3.89967 8.20592 3.89967C10.5658 3.89967 12.4856 5.81948 12.4856 8.17903C12.4856 10.5387 10.5655 12.4588 8.20592 12.4588ZM12.6232 4.78449C12.0647 4.78449 11.6104 4.33023 11.6104 3.77196C11.6104 3.21369 12.0647 2.75943 12.6232 2.75943C13.1815 2.75943 13.6358 3.21369 13.6358 3.77196C13.6358 4.33023 13.1815 4.78449 12.6232 4.78449Z" fill="#B6B7B7"/>
<path d="M8.2062 5.6792C6.82816 5.6792 5.70605 6.80069 5.70605 8.17868C5.70605 9.55742 6.82816 10.6792 8.2062 10.6792C9.58486 10.6792 10.7061 9.55742 10.7061 8.17868C10.7061 6.80102 9.58458 5.6792 8.2062 5.6792Z" fill="#B6B7B7"/>
</svg>
