<svg width="24" height="24" viewBox="0 0 24 24" fill="none" xmlns="http://www.w3.org/2000/svg">
<path d="M15.4925 22H8.50746C7.32836 22 6.46866 21.7297 5.8806 21.175C5.28657 20.6145 5 19.7895 5 18.6572V5.34282C5 4.23898 5.28657 3.42817 5.87761 2.85633C6.47463 2.28165 7.33433 2 8.50746 2H15.4925C16.6746 2 17.5343 2.27312 18.1254 2.83926C18.7164 3.40541 19 4.22191 19 5.34282V18.6572C19 19.7895 18.7104 20.6145 18.1194 21.175C17.5284 21.7297 16.6716 22 15.4925 22ZM8.50746 3.13798C6.86567 3.13798 6.19403 3.77809 6.19403 5.34282V18.6572C6.19403 20.2646 6.8209 20.862 8.50746 20.862H15.4925C17.1791 20.862 17.806 20.2646 17.806 18.6572V5.34282C17.806 4.5377 17.6328 3.98009 17.2806 3.64154C16.9284 3.30299 16.3403 3.13798 15.4925 3.13798H8.50746Z" fill="#019DF4"/>
<path d="M12 17.6472C11.4627 17.6472 11.1134 17.9175 11.1134 18.495C11.1134 18.7738 11.194 18.9787 11.3373 19.1181C11.4925 19.2688 11.7194 19.3428 12 19.3428C12.2806 19.3428 12.5075 19.2688 12.6627 19.1181C12.806 18.9787 12.8866 18.771 12.8866 18.495C12.8836 17.9175 12.5373 17.6472 12 17.6472Z" fill="#019DF4"/>
<path d="M12 19.6302C11.6358 19.6302 11.3313 19.522 11.1254 19.3201C10.9194 19.1181 10.8179 18.8421 10.8179 18.4979C10.8179 17.7895 11.2597 17.3656 12.003 17.3656C12.7463 17.3656 13.1851 17.7895 13.1851 18.4979C13.1851 18.8449 13.0806 19.1209 12.8776 19.3201C12.6746 19.5192 12.3642 19.6302 12 19.6302ZM12 17.9346C11.594 17.9346 11.4119 18.1081 11.4119 18.4979C11.4119 18.6913 11.4597 18.8336 11.5493 18.9218C11.6388 19.01 11.794 19.0612 11.997 19.0612C12.2 19.0612 12.3522 19.0156 12.4448 18.9218C12.5373 18.8279 12.5821 18.6885 12.5821 18.4979C12.5851 18.1081 12.406 17.9317 12 17.9346Z" fill="#019DF4"/>
</svg>
