<svg width="24" height="24" viewBox="0 0 24 24" fill="none" xmlns="http://www.w3.org/2000/svg">
<path fill-rule="evenodd" clip-rule="evenodd" d="M2.83565 20H7.16435C7.41953 20 7.59193 19.9715 7.70445 19.9366C7.87459 19.884 7.91665 19.8269 7.9539 19.7059C7.97834 19.6264 8 19.5025 8 19.3167V11.6833C8 11.2775 7.90001 11.1781 7.87129 11.1517C7.8277 11.1115 7.66805 11 7.16435 11H2.83565C2.58646 11 2.41856 11.0295 2.30871 11.0652C2.13452 11.1217 2.07637 11.1911 2.03666 11.3409C2.01629 11.4178 2 11.5284 2 11.6833V19.3167C2 19.5286 2.02817 19.6598 2.05608 19.7361C2.08959 19.8278 2.12743 19.8779 2.26474 19.9264C2.37432 19.9652 2.55401 20 2.83565 20ZM2.83565 21H7.16435C7.48836 21 7.76581 20.9644 8 20.892C8.4715 20.7461 8.77079 20.4512 8.90966 20C8.97014 19.8035 9 19.5765 9 19.3167V11.6833C9 11.1102 8.85315 10.6968 8.5492 10.4165C8.24525 10.1362 7.79274 10 7.16435 10H2.83565C2.51264 10 2.23529 10.0376 2 10.114C1.5132 10.272 1.19956 10.596 1.07003 11.0848C1.0232 11.2614 1 11.4605 1 11.6833V19.3167C1 19.6119 1.03857 19.8653 1.11685 20.0794C1.25788 20.4653 1.52706 20.7262 1.93115 20.8692C2.17926 20.957 2.47929 21 2.83565 21Z" fill="#019DF4"/>
<path d="M4.50084 18C4.1973 18 4 18.1594 4 18.5C4 18.6644 4.04553 18.7852 4.12648 18.8674C4.21417 18.9564 4.34233 19 4.50084 19C4.65936 19 4.78752 18.9564 4.87521 18.8674C4.95616 18.7852 5 18.6644 5 18.5C5 18.1594 4.80438 18 4.50084 18Z" fill="#019DF4"/>
<path fill-rule="evenodd" clip-rule="evenodd" d="M13.7535 19.8H20.2465C20.5109 19.8 20.7254 19.7785 20.8981 19.7437C21.1992 19.6831 21.3614 19.5857 21.4564 19.4983C21.549 19.4131 21.6469 19.2741 21.7164 19.0127C21.7666 18.8244 21.8 18.5743 21.8 18.2456V5.75445C21.8 4.99014 21.6211 4.67676 21.4727 4.52756C21.3274 4.38137 21.0154 4.2 20.2465 4.2H13.7535C13.3663 4.2 13.0925 4.24975 12.9005 4.31774C12.5977 4.42496 12.4248 4.59736 12.3178 4.90008C12.2498 5.09221 12.2 5.36655 12.2 5.75445V18.2456C12.2 18.7183 12.2691 19.0238 12.3533 19.2176C12.4531 19.4473 12.5971 19.5895 12.8837 19.6862C13.0786 19.752 13.3582 19.8 13.7535 19.8ZM13.7535 21H20.2465C20.5739 21 20.8695 20.9736 21.135 20.9201C22.0724 20.7313 22.6409 20.2052 22.8761 19.3213C22.959 19.0095 23 18.652 23 18.2456V5.75445C23 4.81665 22.7797 4.14021 22.3238 3.68157C21.8679 3.22292 21.1891 3 20.2465 3H13.7535C13.269 3 12.8529 3.06158 12.5 3.18655C11.8571 3.41417 11.4148 3.85433 11.1864 4.5C11.0616 4.85287 11 5.26928 11 5.75445V18.2456C11 18.8251 11.0833 19.3061 11.2528 19.696C11.4933 20.2493 11.9055 20.6226 12.5 20.8232C12.8513 20.9418 13.2675 21 13.7535 21Z" fill="#019DF4"/>
<path d="M17.0017 17C16.3946 17 16 17.3188 16 18C16 18.3289 16.0911 18.5705 16.253 18.7349C16.4283 18.9128 16.6847 19 17.0017 19C17.3187 19 17.575 18.9128 17.7504 18.7349C17.9123 18.5705 18 18.3289 18 18C18 17.3188 17.6088 17 17.0017 17Z" fill="#019DF4"/>
<path d="M7.01669 6.30651C6.7674 6.30651 6.56616 6.10527 6.56616 5.85598C6.56616 5.72382 6.62323 5.60068 6.72235 5.51358C6.87849 5.38006 7.04359 5.23759 7.19291 5.10784H6.40977C5.6739 5.10784 5.12426 5.27604 4.77885 5.60943C4.42143 5.95484 4.23822 6.5165 4.23822 7.2824V8.17445C4.23822 8.42374 4.03698 8.62497 3.78769 8.62497C3.53839 8.62497 3.33716 8.42374 3.33716 8.17445V7.2824C3.33716 6.2642 3.61048 5.48028 4.15412 4.96067C4.67373 4.46209 5.43062 4.20679 6.40977 4.20679H7.20458C7.01936 4.04446 6.841 3.89171 6.76444 3.82615C6.7402 3.80539 6.72535 3.79255 6.72535 3.79255C6.53613 3.63036 6.5121 3.34803 6.67429 3.15881C6.83648 2.96959 7.11881 2.94556 7.30803 3.10775C7.31264 3.11189 7.33339 3.12972 7.36619 3.15789C7.54748 3.31359 8.09687 3.78546 8.32323 4.01181C8.72269 4.41428 8.7257 4.90987 8.32923 5.30633C8.22399 5.41158 7.75269 5.81913 7.48116 6.05394C7.40398 6.12068 7.34294 6.17346 7.31104 6.20138C7.22694 6.26746 7.12482 6.30651 7.01669 6.30651Z" fill="#019DF4"/>
</svg>
