<svg width="16" height="12" viewBox="0 0 16 12" fill="none" xmlns="http://www.w3.org/2000/svg">
<path d="M1.79997 1.06486C1.79997 0.177024 3.46154 -0.285872 4.35808 0.190784L6.46663 1.33333L2.60369 1.33333H1.80369V7.57233C1.80369 8.09532 2.03983 8.59034 2.44628 8.91945L6.2509 12H1.33333C0.596955 12 0 11.403 0 10.6667V2.66667C0 1.93029 0.596954 1.33333 1.33333 1.33333L1.79997 1.33333V1.06486Z" fill="#D9D9D9"/>
<path fill-rule="evenodd" clip-rule="evenodd" d="M2.60369 1.33333H6.48656V11.1615L2.9497 8.2977C2.73084 8.12049 2.60369 7.85394 2.60369 7.57233V1.33333ZM3.68765 6.75011C3.54965 6.92261 3.57762 7.17433 3.75012 7.31233L5.41679 8.64567C5.58929 8.78367 5.84101 8.7557 5.97901 8.5832C6.11702 8.41069 6.08905 8.15897 5.91654 8.02097L4.24988 6.68764C4.07737 6.54963 3.82566 6.5776 3.68765 6.75011ZM5.90667 5.68001C6.0834 5.81256 6.11922 6.06328 5.98667 6.24001C5.85412 6.41675 5.6034 6.45256 5.42667 6.32001L4.09333 5.32001C3.9166 5.18747 3.88078 4.93674 4.01333 4.76001C4.14588 4.58328 4.3966 4.54747 4.57333 4.68001L5.90667 5.68001ZM3.67502 2.10013C3.54622 2.27961 3.5873 2.52952 3.76678 2.65832L5.43345 3.85439C5.61293 3.98319 5.86284 3.94211 5.99164 3.76263C6.12045 3.58315 6.07936 3.33324 5.89988 3.20443L4.23322 2.00837C4.05374 1.87957 3.80382 1.92065 3.67502 2.10013Z" fill="#D9D9D9"/>
<path fill-rule="evenodd" clip-rule="evenodd" d="M7.28656 11.996L7.28658 12H11.8889C12.6253 12 13.2222 11.403 13.2222 10.6667V9.39874C13.2668 9.37543 13.3084 9.34503 13.3453 9.30849L13.3459 9.30791L13.3888 9.26527C13.703 8.95326 15.5505 7.11847 15.6826 6.97258L15.6831 6.97209C15.881 6.75204 16 6.46297 16 6.14229C15.9997 5.83911 15.8973 5.5466 15.7128 5.32437C15.5284 5.10219 15.2757 4.96627 15.0054 4.94425C14.7959 4.92698 14.4922 4.97551 14.2199 5.25953C13.8957 5.59771 13.5603 5.92204 13.2222 6.24318V2.66667C13.2222 1.93029 12.6253 1.33333 11.8889 1.33333H7.28656V11.996ZM11.3465 9.43767C11.2742 9.33429 11.1543 9.26667 11.0185 9.26667H8.26392C8.043 9.26667 7.86392 9.44576 7.86392 9.66667C7.86392 9.88759 8.043 10.0667 8.26392 10.0667H11.0185C11.2395 10.0667 11.4185 9.88759 11.4185 9.66667C11.4185 9.65113 11.4177 9.63579 11.4159 9.6207C11.3834 9.56462 11.36 9.50268 11.3465 9.43767ZM7.86392 6.75C7.86392 6.52909 8.043 6.35 8.26392 6.35H10.4676C10.6885 6.35 10.8676 6.52909 10.8676 6.75C10.8676 6.97091 10.6885 7.15 10.4676 7.15H8.26392C8.043 7.15 7.86392 6.97091 7.86392 6.75ZM7.86392 3.83337C7.86392 3.61245 8.043 3.43337 8.26392 3.43337H11.5695C11.7904 3.43337 11.9695 3.61245 11.9695 3.83337C11.9695 4.05428 11.7904 4.23337 11.5695 4.23337H8.26392C8.043 4.23337 7.86392 4.05428 7.86392 3.83337ZM14.9396 5.74155L14.9404 5.74161C14.9809 5.74491 15.0404 5.76681 15.0972 5.83536C15.1559 5.90602 15.1998 6.01523 15.2 6.14269C15.1999 6.2577 15.1595 6.35608 15.0919 6.43302L15.0895 6.43567C15.0901 6.435 15.0899 6.43517 15.0888 6.43636C15.0861 6.43919 15.0784 6.44735 15.0635 6.46268C15.0445 6.48229 15.0191 6.50828 14.9875 6.54036C14.9244 6.60438 14.8402 6.68916 14.741 6.78875C14.5427 6.98774 14.2873 7.24282 14.0263 7.5029C13.5144 8.01303 12.9835 8.5403 12.8263 8.69647L12.2607 8.90611L12.5037 8.09377C12.513 8.07615 12.5266 8.05196 12.5431 8.02488C12.5602 7.99666 12.5764 7.97211 12.5883 7.95505C12.8493 7.69748 13.1351 7.42717 13.4283 7.14989C13.8891 6.71406 14.3681 6.261 14.7974 5.81314C14.8429 5.76575 14.8753 5.75249 14.8897 5.74769C14.9082 5.7415 14.9259 5.74042 14.9396 5.74155Z" fill="#D9D9D9"/>
</svg>
