<svg width="24" height="24" viewBox="0 0 24 24" fill="none" xmlns="http://www.w3.org/2000/svg">
<path d="M9.48866 14.8255C9.10842 14.8255 8.85217 14.5692 8.85217 14.1862V7.64777C8.85217 7.26753 9.10842 7.01404 9.48866 7.01404H12.244C12.3542 7.01404 12.4589 7.05812 12.5361 7.13527L14.396 8.9979C14.4731 9.07505 14.5172 9.17975 14.5172 9.28997V14.1973C14.5172 14.5665 14.2582 14.8255 13.889 14.8255H9.48866ZM9.67878 13.9989H13.6906V9.4608L12.0704 7.84065H9.67878V13.9989Z" fill="#019DF4"/>
<path d="M12.9885 10.8305H10.3847C10.2331 10.8305 10.1091 10.7065 10.1091 10.555C10.1091 10.4034 10.2331 10.2795 10.3847 10.2795H12.9912C13.1428 10.2795 13.2668 10.4034 13.2668 10.555C13.2668 10.7065 13.14 10.8305 12.9885 10.8305ZM12.9885 11.9492H10.3847C10.2331 11.9492 10.1091 11.8252 10.1091 11.6737C10.1091 11.5221 10.2331 11.3981 10.3847 11.3981H12.9912C13.1428 11.3981 13.2668 11.5221 13.2668 11.6737C13.2668 11.8252 13.14 11.9492 12.9885 11.9492ZM12.9885 13.0651H10.3847C10.2331 13.0651 10.1091 12.9411 10.1091 12.7896C10.1091 12.638 10.2331 12.5141 10.3847 12.5141H12.9912C13.1428 12.5141 13.2668 12.638 13.2668 12.7896C13.2668 12.9411 13.14 13.0651 12.9885 13.0651ZM14.0135 9.65674H12.8645C12.2556 9.65674 11.8781 9.21588 11.8781 8.505V7.51858C11.8781 7.36703 12.0021 7.24304 12.1536 7.24304C12.228 7.24304 12.2969 7.27335 12.3492 7.32295L14.2064 9.18557C14.3138 9.29303 14.3138 9.46662 14.2064 9.57408C14.154 9.62643 14.0851 9.65674 14.0135 9.65674ZM12.4291 8.18538V8.505C12.4291 8.90177 12.5752 9.10567 12.8645 9.10567H13.3467L12.4291 8.18538Z" fill="#019DF4"/>
<path d="M18.1327 16.8508H5.23755C4.15745 16.8508 3.32808 16.5284 2.77426 15.8975C2.26176 15.3051 2 14.4509 2 13.3543V8.49656C2 7.39992 2.26176 6.54576 2.77426 5.95611C3.32808 5.32238 4.15469 5 5.23755 5H18.1327C19.2128 5 20.0421 5.32238 20.5959 5.95611C21.1112 6.54576 21.3702 7.39992 21.3702 8.49656V13.3543C21.3702 14.4509 21.1084 15.3051 20.5959 15.8947C20.0421 16.5284 19.2128 16.8508 18.1327 16.8508ZM5.23755 6.1049C4.47707 6.1049 3.94529 6.29502 3.60638 6.68353C3.27298 7.06377 3.10215 7.67546 3.10215 8.49656V13.3543C3.10215 14.1754 3.27298 14.787 3.60638 15.17C3.94529 15.5585 4.47983 15.7487 5.23755 15.7487H18.1327C18.8904 15.7487 19.4249 15.5585 19.7638 15.17C20.0972 14.787 20.2681 14.1754 20.2681 13.3543V8.49656C20.2681 7.67546 20.0972 7.06377 19.7638 6.68077C19.4249 6.29227 18.8904 6.10215 18.1327 6.10215L5.23755 6.1049ZM20.7861 19H2.58414C2.28105 19 2.03306 18.752 2.03306 18.4489C2.03306 18.1458 2.28105 17.8979 2.58414 17.8979H20.7861C21.0892 17.8979 21.3371 18.1458 21.3371 18.4489C21.3371 18.752 21.0892 19 20.7861 19Z" fill="#019DF4"/>
</svg>
