<svg width="7" height="13" viewBox="0 0 7 13" fill="none" xmlns="http://www.w3.org/2000/svg">
<path fill-rule="evenodd" clip-rule="evenodd" d="M0.652304 12.264C0.469625 12.264 0.295482 12.1877 0.172558 12.0565C-0.0715828 11.7909 -0.0545101 11.3859 0.210118 11.1402L5.38318 6.38771L0.213533 1.72649C-0.0528029 1.48247 -0.0715829 1.07744 0.170851 0.810183C0.404748 0.551226 0.809374 0.524667 1.07571 0.752084C1.08083 0.757064 1.08595 0.760384 1.09107 0.765364L6.78656 5.90299C6.92314 6.02583 6.99997 6.19847 6.99997 6.37941C7.00168 6.56034 6.92656 6.73464 6.79168 6.85914L1.09449 12.0914C0.975626 12.2024 0.817123 12.2643 0.652304 12.264Z" fill="#019DF4"/>
</svg>
