<svg width="16" height="12" viewBox="0 0 16 12" fill="none" xmlns="http://www.w3.org/2000/svg">
<path fill-rule="evenodd" clip-rule="evenodd" d="M14.3006 10.3584C14.4866 9.66547 14.5807 8.87956 14.5807 8.0197C14.5807 3.78802 12.3657 1.64155 8 1.64155C3.63426 1.64155 1.42147 3.78591 1.42147 8.0197C1.42147 8.88167 1.51554 9.66758 1.6994 10.3584H14.3006ZM7.99786 0.75C12.9066 0.75 15.5 3.26408 15.5 8.0197C15.5 9.08871 15.3653 10.0584 15.0959 10.9035C15.0895 10.9267 15.0788 10.9479 15.0681 10.969L15.0532 11.0007C14.9741 11.1549 14.8158 11.25 14.6405 11.25H1.35091C1.15208 11.2521 0.972491 11.1253 0.91049 10.9373C0.638968 10.0838 0.5 9.1035 0.5 8.0197C0.5 3.26408 3.09336 0.75 7.99786 0.75ZM8 7.8697C8.26297 7.8697 8.49815 7.97322 8.67132 8.13801L13.5352 6.75632C13.7811 6.68661 14.0355 6.82182 14.106 7.05843C14.1745 7.29294 14.0376 7.54012 13.8003 7.60984C13.7982 7.60984 13.796 7.61196 13.7939 7.61196L8.93643 8.99153C8.83808 9.42251 8.44897 9.72674 8.00214 9.72463C7.47406 9.72463 7.04646 9.31054 7.04646 8.79716C7.04433 8.2859 7.47192 7.87181 8 7.8697ZM7.98931 4.10492C7.73703 4.10703 7.53178 3.90844 7.52965 3.65915V3.05704C7.52965 2.81197 7.73489 2.61126 7.98931 2.61126C8.24373 2.61126 8.44897 2.81197 8.44897 3.05704V3.65915C8.44897 3.90633 8.24373 4.10492 7.98931 4.10492ZM4.49587 3.9507L4.93629 4.37746C5.1116 4.54647 5.11588 4.82323 4.94698 4.99858L4.93629 5.00914C4.84863 5.09365 4.73318 5.14013 4.61132 5.14013C4.48945 5.14013 4.374 5.09365 4.28635 5.00914L3.84379 4.58027C3.66847 4.41126 3.6642 4.13239 3.83523 3.95915L3.84379 3.9507C4.02551 3.77746 4.31414 3.77746 4.49587 3.9507ZM3.39695 7.0859C3.65137 7.0859 3.85661 7.28449 3.85661 7.53167C3.85661 7.77674 3.65137 7.97745 3.39695 7.97745H2.7748C2.52466 7.97956 2.31727 7.78097 2.31514 7.53167C2.31514 7.28449 2.52038 7.0859 2.7748 7.0859H3.39695ZM11.363 5.13802C11.2412 5.13802 11.1236 5.09154 11.0381 5.00703C10.8627 4.83802 10.8585 4.56126 11.0274 4.38591L11.0381 4.37534L11.4785 3.94858C11.6602 3.77534 11.9488 3.77534 12.1284 3.94858C12.3037 4.1176 12.308 4.39647 12.137 4.56971L12.1284 4.57816L11.688 5.00492C11.6025 5.09154 11.4849 5.13802 11.363 5.13802Z" fill="#019DF4"/>
</svg>
