<svg width="24" height="24" viewBox="0 0 24 24" fill="none" xmlns="http://www.w3.org/2000/svg">
<path d="M19.9254 21H11.567C10.8913 21 10.4707 20.5766 10.4707 19.8981V5.08511C10.4707 4.41778 10.8913 4.0028 11.5642 4H16.7794C16.9281 4 17.0711 4.05888 17.1748 4.16543L21.5489 8.5395C21.6554 8.64325 21.7143 8.78624 21.7143 8.93485V19.9233C21.7143 20.1336 21.6947 20.4056 21.532 20.6327C21.4143 20.7981 21.1816 20.9972 20.7385 20.9972C20.4694 21 20.1974 21 19.9254 21ZM20.5927 19.8784V9.17038L16.5467 5.12436H11.5922V19.8784H20.5927Z" fill="#019DF4"/>
<path d="M19.0001 12.2096H13.1848C12.8764 12.2096 12.6241 11.9573 12.6241 11.6489C12.6241 11.3404 12.8764 11.0881 13.1848 11.0881H19.0001C19.3085 11.0881 19.5609 11.3404 19.5609 11.6489C19.5609 11.9573 19.3085 12.2096 19.0001 12.2096ZM19.0001 14.949H13.1848C12.8764 14.949 12.6241 14.6967 12.6241 14.3883C12.6241 14.0798 12.8764 13.8275 13.1848 13.8275H19.0001C19.3085 13.8275 19.5609 14.0798 19.5609 14.3883C19.5609 14.6967 19.3085 14.949 19.0001 14.949ZM19.0001 17.7053H13.1848C12.8764 17.7053 12.6241 17.4529 12.6241 17.1445C12.6241 16.8361 12.8764 16.5837 13.1848 16.5837H19.0001C19.3085 16.5837 19.5609 16.8361 19.5609 17.1445C19.5609 17.4529 19.3085 17.7053 19.0001 17.7053ZM7.49573 8.56739C7.26301 8.56739 7.07515 8.37953 7.07515 8.1468C7.07515 8.02343 7.12842 7.90847 7.22095 7.82716C7.60789 7.4963 8.05371 7.10656 8.12661 7.03646L8.13222 7.03085L8.121 7.01683C7.89669 6.79252 7.22936 6.22614 7.22376 6.22053C7.04711 6.06912 7.02468 5.80555 7.17609 5.62891C7.3275 5.45226 7.59107 5.42983 7.76771 5.58124C7.79575 5.60648 8.46588 6.17567 8.71543 6.42521C9.08834 6.80093 9.09115 7.26358 8.72103 7.63369C8.59486 7.75987 7.9051 8.35149 7.77051 8.46925C7.69201 8.53094 7.59667 8.56739 7.49573 8.56739Z" fill="#019DF4"/>
<path d="M4.48144 10.732C4.24872 10.732 4.06086 10.5441 4.06086 10.3114V9.47867C4.06086 8.52815 4.31602 7.79633 4.82352 7.31126C5.30859 6.84581 6.01517 6.60748 6.92924 6.60748H8.16296C8.39568 6.60748 8.58354 6.79534 8.58354 7.02807C8.58354 7.26079 8.39568 7.44865 8.16296 7.44865H6.92924C6.24229 7.44865 5.72918 7.60567 5.40673 7.9169C5.07307 8.23935 4.90203 8.76368 4.90203 9.47867V10.3114C4.90203 10.5441 4.71417 10.732 4.48144 10.732ZM5.61983 20.9802H2.85238C2.34207 20.9802 2 20.6354 2 20.1222V11.9573C2 11.4582 2.35049 11.1077 2.85238 11.1077H6.14415C6.29276 11.1077 6.43576 11.1666 6.54231 11.2704L8.97328 13.7013C9.07983 13.8051 9.13871 13.9481 9.13871 14.0967V20.1335C9.13871 20.6297 8.79383 20.9746 8.29754 20.9746L5.61983 20.9802ZM3.12156 19.8587H8.01435V14.3322L5.91143 12.2293H3.12156V19.8587Z" fill="#019DF4"/>
<path d="M7.12275 16.2276H4.02445C3.79173 16.2276 3.60387 16.0397 3.60387 15.807C3.60387 15.5743 3.79173 15.3864 4.02445 15.3864H7.12275C7.35547 15.3864 7.54334 15.5743 7.54334 15.807C7.54334 16.0397 7.35547 16.2276 7.12275 16.2276ZM7.12275 17.6856H4.02445C3.79173 17.6856 3.60387 17.4977 3.60387 17.265C3.60387 17.0323 3.79173 16.8444 4.02445 16.8444H7.12275C7.35547 16.8444 7.54334 17.0323 7.54334 17.265C7.54334 17.4977 7.35547 17.6856 7.12275 17.6856ZM7.12275 19.1436H4.02445C3.79173 19.1436 3.60387 18.9558 3.60387 18.723C3.60387 18.4903 3.79173 18.3024 4.02445 18.3024H7.12275C7.35547 18.3024 7.54334 18.4903 7.54334 18.723C7.54334 18.9558 7.35547 19.1436 7.12275 19.1436ZM8.26954 14.8284H7.29659C6.69656 14.8284 6.22831 14.663 5.90586 14.3405C5.58341 14.0181 5.41798 13.5498 5.41798 12.9498V11.9769C5.41798 11.7441 5.60585 11.5563 5.83857 11.5563C6.07129 11.5563 6.25915 11.7441 6.25915 11.9769V12.9498C6.25915 13.6872 6.55917 13.9873 7.29659 13.9873H8.26954C8.50227 13.9873 8.69013 14.1751 8.69013 14.4078C8.69013 14.6406 8.49946 14.8284 8.26954 14.8284ZM21.1534 9.49822H18.9664C18.142 9.49822 17.4495 9.24026 16.9616 8.75239C16.4737 8.26451 16.2186 7.57195 16.2186 6.75041V4.56337C16.2186 4.25494 16.4681 4.00259 16.7794 4.00259C17.0878 4.00259 17.3401 4.25214 17.3401 4.56337V6.75041C17.3401 7.26913 17.4831 7.68691 17.7551 7.95889C18.0271 8.23086 18.4449 8.37667 18.9664 8.37667H21.1534C21.4619 8.37667 21.7142 8.62902 21.7142 8.93744C21.7142 9.24587 21.4619 9.49822 21.1534 9.49822Z" fill="#019DF4"/>
</svg>
