<svg width="24" height="24" viewBox="0 0 24 24" fill="none" xmlns="http://www.w3.org/2000/svg">
<path d="M12 22C8.82788 22 6.35562 21.1693 4.65718 19.5334C2.89331 17.8321 2 15.2973 2 12C2 8.7027 2.89331 6.16785 4.65718 4.46657C6.35562 2.83073 8.82788 2 12 2C15.1721 2 17.6444 2.83073 19.3428 4.46657C21.1067 6.16501 22 8.69986 22 12C22 15.3001 21.1067 17.8321 19.3428 19.5334C17.6444 21.1693 15.1721 22 12 22ZM12 3.13798C9.13229 3.13798 6.92745 3.8606 5.44808 5.28592C3.91465 6.76245 3.13798 9.02134 3.13798 12C3.13798 14.9787 3.91465 17.2347 5.44808 18.7141C6.92745 20.1394 9.13229 20.862 12 20.862C14.8677 20.862 17.0725 20.1394 18.5519 18.7141C20.0853 17.2376 20.862 14.9787 20.862 12C20.862 9.02134 20.0853 6.76529 18.5519 5.28592C17.0725 3.8606 14.8677 3.13798 12 3.13798Z" fill="#019DF4"/>
<path d="M5.9656 20.4724C5.65266 20.4724 5.39661 20.2163 5.39661 19.9034C5.39661 19.7526 5.45636 19.6047 5.56446 19.4994L8.65693 16.4468L8.04526 15.8266L7.43075 15.2064L4.45778 18.1367C4.23872 18.3614 3.87741 18.3643 3.65266 18.1452C3.42791 17.9261 3.42506 17.5648 3.64412 17.3401L3.65835 17.3259L7.0353 13.9944C7.26006 13.7725 7.61852 13.7754 7.84042 14.0001L8.03673 14.1993C8.72236 12.8365 9.4336 10.8252 9.62705 8.15375C9.45351 8.07978 9.29419 7.97167 9.16333 7.83227C8.88737 7.54493 8.74796 7.16655 8.74796 6.70567C8.74796 6.24478 8.88737 5.86925 9.16333 5.57907C9.43929 5.29173 9.81766 5.13525 10.2473 5.13525C10.6768 5.13525 11.0524 5.28888 11.3312 5.57907C11.61 5.86925 11.7465 6.24763 11.7465 6.70567C11.7465 7.1637 11.6071 7.54208 11.3312 7.83227C11.1747 7.99727 10.9784 8.12245 10.7622 8.19357C10.6086 10.3557 10.1363 12.1224 9.59291 13.4909L14.5289 8.61463C14.4464 8.42402 14.4037 8.21918 14.4123 8.0115C14.4236 7.61321 14.5943 7.24905 14.9244 6.92473C15.2544 6.6004 15.6185 6.43255 16.0168 6.42402C16.4208 6.41264 16.7963 6.56626 17.1007 6.86783C17.4051 7.16939 17.5645 7.54493 17.5531 7.94891C17.5417 8.3472 17.371 8.71136 17.041 9.03568C16.711 9.36 16.3468 9.52501 15.9485 9.53639C15.738 9.54208 15.5275 9.50225 15.334 9.4169L10.4919 14.1964C11.8433 13.6786 13.5616 13.2291 15.6498 13.0812C15.7238 12.865 15.8461 12.6687 16.0111 12.5122C16.2985 12.2362 16.6768 12.0968 17.1377 12.0968C17.5986 12.0968 17.977 12.2391 18.2643 12.5151C18.5517 12.791 18.7081 13.1694 18.7081 13.599C18.7081 14.0286 18.5545 14.4041 18.2643 14.6858C17.9741 14.9674 17.5986 15.1011 17.1377 15.1011C16.6768 15.1011 16.3013 14.9589 16.0111 14.6858C15.8746 14.5549 15.7636 14.3956 15.6896 14.222C13.0097 14.4155 10.9955 15.1324 9.6299 15.8209L9.85749 16.0513C10.0794 16.2761 10.0766 16.6345 9.8518 16.8564L6.36674 20.3102C6.25863 20.4155 6.11638 20.4724 5.9656 20.4724ZM16.7167 13.616C16.7195 13.7611 16.765 13.8237 16.8106 13.8664C16.8362 13.892 16.9158 13.966 17.1491 13.966C17.3824 13.966 17.462 13.892 17.4877 13.8664C17.5332 13.8209 17.5815 13.7555 17.5815 13.6018C17.5815 13.4482 17.5332 13.3828 17.4877 13.3372C17.462 13.3116 17.3824 13.2377 17.1491 13.2377C16.9158 13.2377 16.8362 13.3116 16.8106 13.3372C16.765 13.3828 16.7167 13.4482 16.7167 13.599V13.6104C16.7138 13.6132 16.7138 13.616 16.7167 13.616ZM15.6669 8.28461C15.7778 8.39272 15.8575 8.40695 15.9229 8.4041C15.9599 8.4041 16.0737 8.40126 16.2444 8.23056C16.4151 8.05986 16.4151 7.95744 16.4179 7.9233C16.4208 7.86356 16.4066 7.78675 16.3042 7.68433C16.2017 7.58191 16.1164 7.56484 16.051 7.56769C16.014 7.56769 15.9002 7.57053 15.7295 7.74123C15.5588 7.91193 15.5588 8.01434 15.5559 8.04848C15.5531 8.10538 15.5645 8.18219 15.6669 8.28461ZM10.2529 7.1381C10.4037 7.1381 10.4692 7.08973 10.5147 7.04422C10.5403 7.01861 10.6143 6.9418 10.6143 6.70567C10.6143 6.46954 10.5403 6.39272 10.5147 6.36712C10.4692 6.3216 10.4037 6.27323 10.2501 6.27323C10.0965 6.27323 10.031 6.3216 9.98552 6.36712C9.95991 6.39272 9.88594 6.46954 9.88594 6.70567C9.88594 6.9418 9.95991 7.01861 9.98552 7.04422C10.0282 7.08973 10.0908 7.13525 10.2359 7.1381H10.2529Z" fill="#019DF4"/>
</svg>
