<svg width="25" height="19" viewBox="0 0 25 19" fill="none" xmlns="http://www.w3.org/2000/svg">
<path d="M4.70007 2.15726C3.54171 2.17549 1.40458 2.73155 0.425809 6.62394C-0.000719211 8.31946 -0.162351 10.0879 0.201321 12.1936C0.538054 14.1353 1.1307 15.808 1.53478 16.7332C1.67397 17.0523 1.88499 17.385 2.05111 17.5855C2.52702 18.1735 3.31722 18.137 3.65396 17.973C4.01763 17.7998 4.43518 17.3759 4.28253 16.4187C4.21069 15.9538 3.99967 15.2747 3.87845 14.8964C3.51477 13.7387 3.02988 12.3395 2.98947 11.3459C2.9311 10.015 3.46988 9.83722 3.82906 9.76429C4.43069 9.63667 4.93354 10.2793 5.41395 11.0861C5.98415 12.0478 6.96292 13.757 7.7621 15.0605C8.48495 16.2364 9.81393 17.4989 11.9511 17.4123C14.1286 17.3257 15.7359 16.5144 16.5621 13.9575C17.1816 12.0478 17.6037 10.6212 18.2816 9.1581C19.0629 7.47626 20.1045 6.57836 20.98 6.85183C21.7926 7.10707 21.9992 7.8819 22.0082 9.02592C22.0171 10.0378 21.8959 11.1499 21.8061 11.9657C21.7702 12.262 21.7118 12.8591 21.7343 13.1918C21.7837 13.8436 22.071 14.4953 22.8253 14.6002C23.6245 14.7095 24.271 14.0851 24.5269 13.3331C24.6302 13.0368 24.7155 12.581 24.7604 12.2574C24.9939 10.6257 25.0567 9.52728 24.949 7.85911C24.8232 5.90836 24.4326 4.12625 23.7502 2.5857C23.0947 1.11352 22.0486 0.165486 20.7016 0.0834454C19.211 -0.00771131 17.5004 0.953992 16.6025 2.82726C15.7763 4.55468 15.1119 6.32312 14.7123 7.23013C14.3037 8.14626 13.7066 8.71143 12.7862 8.80715C11.6592 8.92109 10.6939 8.12803 9.98454 6.98857C9.36495 5.99952 8.13924 4.11257 7.48373 3.47903C6.86864 2.88196 6.16374 2.13447 4.70007 2.15726Z" fill="white"/>
</svg>
