<svg width="24" height="24" viewBox="0 0 24 24" fill="none" xmlns="http://www.w3.org/2000/svg">
<path d="M6.4333 12.111C6.35933 12.0597 6.3252 12.0028 6.3252 11.9146C6.32804 11.8009 6.42192 11.7098 6.53572 11.7127C6.58978 11.7155 6.64383 11.7326 6.68935 11.7639C7.01652 11.9801 7.47171 12.1991 8.00087 12.1991C8.79177 12.1991 9.27541 11.7923 9.27541 11.192C9.27541 10.6999 8.99945 10.3499 8.09475 10.2361L7.86147 10.2077C6.89703 10.0853 6.44753 9.62162 6.44753 8.90185C6.44753 8.04552 7.05635 7.51636 7.99234 7.51636C8.51581 7.51636 8.95677 7.65292 9.26118 7.84353C9.35507 7.90043 9.39774 7.97439 9.39774 8.04552C9.39774 8.15363 9.31239 8.24182 9.20428 8.24182H9.20144C9.15023 8.23897 9.10187 8.22475 9.05635 8.19915C8.72349 8.01707 8.37356 7.90896 7.97527 7.90896C7.25834 7.90896 6.8572 8.30725 6.8572 8.86486C6.8572 9.37126 7.17015 9.69843 8.01794 9.80654L8.24269 9.83499C9.2242 9.95732 9.68793 10.4211 9.68793 11.1607C9.68793 11.9943 9.09333 12.5889 7.94682 12.5889C7.40628 12.5832 6.87996 12.4182 6.4333 12.111Z" fill="#019DF4"/>
<path d="M7.95063 12.8024C7.36457 12.7967 6.79558 12.6175 6.31194 12.2846C6.17823 12.1908 6.11279 12.0684 6.11279 11.9148C6.11564 11.6815 6.3034 11.4966 6.53669 11.4994C6.63342 11.5023 6.7273 11.5307 6.80696 11.5848C7.20525 11.8494 7.60639 11.9831 8.00184 11.9831C8.65618 11.9831 9.06301 11.6787 9.06301 11.1893C9.06301 10.8679 8.94352 10.5549 8.06727 10.444L7.83683 10.4155C6.51393 10.2448 6.23513 9.49659 6.23513 8.89915C6.23513 7.92903 6.92645 7.30029 7.9933 7.30029C8.51109 7.30029 9.00042 7.42832 9.37595 7.65876C9.58363 7.78678 9.61493 7.95463 9.61493 8.04282C9.61493 8.27042 9.43285 8.4525 9.20525 8.4525C9.11991 8.44965 9.0374 8.42689 8.96628 8.38706L8.96059 8.38422C8.63057 8.20499 8.31763 8.11964 7.98193 8.11964C7.41578 8.11964 7.07723 8.39844 7.07723 8.86217C7.07723 9.05847 7.07723 9.46814 8.0502 9.59332L8.27496 9.62177C9.62062 9.79247 9.90511 10.5521 9.90511 11.1609C9.90511 11.6474 9.72588 12.057 9.39018 12.3501C9.04594 12.646 8.55092 12.8024 7.95063 12.8024ZM6.5566 11.9347C6.66471 12.0115 6.78136 12.077 6.90084 12.1339C6.78705 12.077 6.67609 12.0115 6.56799 11.9376C6.5623 11.9319 6.55376 11.929 6.54523 11.9262L6.5566 11.9347ZM8.49971 10.0912C8.91791 10.1965 9.20241 10.3785 9.35604 10.6403C9.16542 10.2932 8.78705 10.1538 8.49971 10.0912ZM6.73015 9.30598C6.84964 9.61608 7.12275 9.82092 7.55803 9.93187C7.13413 9.80954 6.86101 9.6047 6.73015 9.30598Z" fill="#019DF4"/>
<path d="M8.00772 13.4658C7.81142 13.4658 7.6521 13.3064 7.6521 13.1101V7.00772C7.6521 6.81142 7.81142 6.6521 8.00772 6.6521C8.20402 6.6521 8.36334 6.81142 8.36334 7.00772V13.1101C8.36334 13.3064 8.20402 13.4658 8.00772 13.4658Z" fill="#019DF4"/>
<path d="M8.00711 15.0587C6.42532 15.0587 5.19061 14.6405 4.33713 13.8183C3.4495 12.9619 3 11.6959 3 10.0515C3 8.40717 3.4495 7.14116 4.33713 6.28483C5.19061 5.46264 6.42532 5.04443 8.00711 5.04443C9.5889 5.04443 10.8236 5.46264 11.6771 6.28483C12.5647 7.14116 13.0142 8.40717 13.0142 10.0515C13.0142 11.6959 12.5647 12.9619 11.6771 13.8183C10.8236 14.6405 9.5889 15.0587 8.00711 15.0587ZM8.00711 6.18241C6.72973 6.18241 5.76245 6.49251 5.12802 7.10418C4.47084 7.73576 4.13798 8.72864 4.13798 10.0515C4.13798 11.3744 4.47084 12.3673 5.12802 12.9989C5.76245 13.6106 6.73257 13.9207 8.00711 13.9207C9.28165 13.9207 10.2518 13.6106 10.8862 12.9989C11.5434 12.3673 11.8762 11.3744 11.8762 10.0515C11.8762 8.72864 11.5434 7.73576 10.8862 7.10418C10.2518 6.49251 9.2845 6.18241 8.00711 6.18241Z" fill="#019DF4"/>
<path d="M17.4348 22H10.7776C9.65388 22 8.83453 21.7297 8.27407 21.175C7.70793 20.6145 7.43481 19.7895 7.43481 18.6572V14.8165C7.43481 14.5036 7.69086 14.2475 8.0038 14.2475C8.31675 14.2475 8.57279 14.5036 8.57279 14.8165V18.6572C8.57279 20.2646 9.17023 20.862 10.7776 20.862H17.4348C19.0422 20.862 19.6397 20.2646 19.6397 18.6572V5.34282C19.6397 4.5377 19.4746 3.98009 19.1389 3.64154C18.8032 3.30299 18.2428 3.13798 17.4348 3.13798H10.7776C9.21291 3.13798 8.57279 3.77809 8.57279 5.34282C8.57279 5.65576 8.31675 5.91181 8.0038 5.91181C7.69086 5.91181 7.43481 5.65576 7.43481 5.34282C7.43481 4.23898 7.70793 3.42816 8.27123 2.85633C8.84306 2.28165 9.66241 2 10.7776 2H17.4348C18.5614 2 19.3808 2.27312 19.9441 2.83926C20.5074 3.40541 20.7776 4.22191 20.7776 5.34282V18.6572C20.7776 19.7895 20.5017 20.6145 19.9384 21.175C19.3779 21.7297 18.5586 22 17.4348 22Z" fill="#019DF4"/>
<path d="M14.1062 17.647C13.5941 17.647 13.2612 17.9172 13.2612 18.4948C13.2612 18.7736 13.338 18.9784 13.4746 19.1178C13.6225 19.2686 13.8388 19.3426 14.1062 19.3426C14.3736 19.3426 14.5898 19.2686 14.7378 19.1178C14.8743 18.9784 14.9511 18.7707 14.9511 18.4948C14.9511 17.9172 14.6183 17.647 14.1062 17.647Z" fill="#019DF4"/>
<path d="M14.1071 19.6296C13.76 19.6296 13.4698 19.5215 13.2735 19.3195C13.0772 19.1175 12.9805 18.8415 12.9805 18.4973C12.9805 17.7889 13.4015 17.365 14.1099 17.365C14.8183 17.365 15.2394 17.7889 15.2394 18.4973C15.2394 18.8444 15.1398 19.1203 14.9463 19.3195C14.7529 19.5186 14.457 19.6296 14.1071 19.6296ZM14.1071 17.934C13.7202 17.934 13.5466 18.1075 13.5466 18.4973C13.5466 18.6907 13.5921 18.833 13.6775 18.9212C13.7628 19.0094 13.9108 19.0606 14.1042 19.0606C14.2977 19.0606 14.4428 19.0151 14.531 18.9212C14.6192 18.8273 14.6618 18.6879 14.6618 18.4973C14.6675 18.1075 14.494 17.9311 14.1071 17.934Z" fill="#019DF4"/>
</svg>
