<svg width="24" height="24" viewBox="0 0 24 24" fill="none" xmlns="http://www.w3.org/2000/svg">
<path fill-rule="evenodd" clip-rule="evenodd" d="M20.5202 18.7991C20.6483 18.7991 20.7507 18.6995 20.7507 18.5771V9.38816H3.24929V18.5743C3.24929 18.6966 3.35174 18.7962 3.4798 18.7962H20.5202V18.7991ZM3.4798 6.20376C3.35174 6.20376 3.24929 6.30336 3.24929 6.42573V8.1844H20.7507V6.42573C20.7507 6.30336 20.6483 6.20376 20.5202 6.20376H3.4798ZM20.5202 5C21.3369 5 22 5.6403 22 6.42573V18.5743C22 19.3597 21.3369 20 20.5202 20H3.4798C2.66306 20 2 19.3597 2 18.5743V6.42573C2 5.6403 2.66306 5 3.4798 5H20.5202ZM6.23734 7.66932C5.91861 7.66932 5.65965 7.4189 5.65965 7.11155C5.65965 6.80421 5.91861 6.55378 6.23734 6.55378C6.55891 6.55378 6.81503 6.80421 6.81503 7.11155C6.81503 7.4189 6.55891 7.66932 6.23734 7.66932ZM7.9761 7.66932C7.65452 7.66932 7.39841 7.4189 7.39841 7.11155C7.39841 6.80421 7.65737 6.55378 7.9761 6.55378C8.29767 6.55378 8.55378 6.80421 8.55378 7.11155C8.55378 7.4189 8.29482 7.66932 7.9761 7.66932ZM4.50142 7.66932C4.17985 7.66932 3.92373 7.4189 3.92373 7.11155C3.92373 6.80421 4.1827 6.55378 4.50142 6.55378C4.82299 6.55378 5.07911 6.80421 5.07911 7.11155C5.07911 7.4189 4.82015 7.66932 4.50142 7.66932ZM12.9647 13.745L13.3859 13.3324L12.831 13.2527C12.572 13.2129 12.3386 13.0478 12.2248 12.8201L12 12.3591L11.7752 12.8145C11.6614 13.045 11.4252 13.2157 11.1633 13.2527L10.6141 13.3324L11.0353 13.7422C11.2146 13.9158 11.2999 14.1833 11.2573 14.4223L11.1633 14.9659L11.6158 14.7297C11.7325 14.667 11.8662 14.6329 12 14.6329C12.1281 14.6329 12.2561 14.6642 12.3671 14.7211L12.8367 14.9687L12.7427 14.4252C12.7029 14.1833 12.7883 13.9186 12.9647 13.745ZM13.9835 12.6494C14.1799 12.6779 14.3421 12.8116 14.4075 12.9994C14.473 13.1929 14.4246 13.4035 14.2795 13.5487L13.531 14.28C13.5253 14.2857 13.5225 14.2943 13.5253 14.2999L13.7018 15.333C13.7359 15.5378 13.6505 15.7371 13.4798 15.8566C13.3887 15.9192 13.2863 15.9476 13.181 15.9476C13.0956 15.9476 13.0102 15.9277 12.9306 15.8879L12.0057 15.4013C12.0028 15.4013 12.0028 15.3984 12 15.3984C11.9972 15.3984 11.9972 15.3984 11.9943 15.4013L11.0694 15.8879C10.9926 15.9277 10.9044 15.9476 10.819 15.9476C10.7137 15.9476 10.6084 15.9163 10.5174 15.8566C10.3438 15.7399 10.2612 15.5378 10.2954 15.333L10.4718 14.2999C10.4747 14.2914 10.4718 14.2857 10.4661 14.28L9.7177 13.5487C9.56972 13.4035 9.52134 13.1958 9.58964 12.9994C9.65509 12.8116 9.8173 12.6779 10.0137 12.6494L11.0467 12.4986C11.0495 12.4986 11.0552 12.4929 11.0581 12.49L11.5219 11.5509C11.6101 11.3688 11.7923 11.255 11.9972 11.255C12.202 11.255 12.3842 11.3688 12.4724 11.5509L12.9334 12.49C12.9363 12.4929 12.9391 12.4986 12.9448 12.4986L13.9835 12.6494ZM18.6619 13.745L19.0831 13.3324L18.5282 13.2527C18.2635 13.2129 18.0302 13.0421 17.9163 12.8088L17.6944 12.3591L17.4696 12.8145C17.3557 13.045 17.1195 13.2157 16.8577 13.2527L16.3085 13.3324L16.7297 13.7422C16.9061 13.9158 16.9943 14.1833 16.9516 14.4223L16.8577 14.9659L17.3102 14.7297C17.4269 14.667 17.5635 14.6329 17.6944 14.6329C17.8196 14.6329 17.9505 14.6642 18.0643 14.7211L18.5339 14.9687L18.44 14.4252C18.4001 14.1833 18.4855 13.9186 18.6619 13.745ZM19.6807 12.6494C19.8771 12.6779 20.0393 12.8116 20.1047 12.9994C20.1702 13.1929 20.1218 13.4035 19.9767 13.5487L19.2282 14.28C19.2225 14.2857 19.2197 14.2943 19.2225 14.2999L19.399 15.333C19.4331 15.5378 19.3478 15.7371 19.177 15.8566C19.0859 15.9192 18.9835 15.9476 18.8782 15.9476C18.7928 15.9476 18.7075 15.9277 18.6278 15.8879L17.7029 15.4013C17.7001 15.4013 17.7001 15.3984 17.6972 15.3984C17.6944 15.3984 17.6944 15.3984 17.6944 15.4013L16.7695 15.8879C16.6898 15.9277 16.6044 15.9476 16.5191 15.9476C16.4138 15.9476 16.3085 15.9163 16.2174 15.8566C16.0438 15.7399 15.9613 15.5378 15.9954 15.333L16.1719 14.2999C16.1747 14.2914 16.1719 14.2857 16.1662 14.28L15.4178 13.5487C15.2726 13.4035 15.2214 13.1958 15.2897 12.9994C15.3552 12.8116 15.5174 12.6779 15.7137 12.6494L16.7467 12.4986C16.7496 12.4986 16.7553 12.4929 16.7581 12.49L17.2191 11.5509C17.3073 11.3688 17.4923 11.255 17.6944 11.255C17.8993 11.255 18.0814 11.3688 18.1725 11.5509L18.6335 12.49C18.6363 12.4929 18.6392 12.4986 18.6448 12.4986L19.6807 12.6494ZM7.2675 13.745L7.68867 13.3324L7.13375 13.2527C6.87479 13.2129 6.64143 13.0478 6.5276 12.8201L6.30279 12.3591L6.07797 12.8145C5.96414 13.045 5.72795 13.2157 5.46614 13.2527L4.91406 13.3324L5.33523 13.7422C5.51167 13.9158 5.59989 14.1833 5.5572 14.4223L5.46614 14.9659L5.91861 14.7297C6.03529 14.667 6.17188 14.6329 6.30279 14.6329C6.43085 14.6329 6.55891 14.6642 6.67274 14.7211L7.14229 14.9687L7.04838 14.4252C7.00569 14.1833 7.09106 13.9186 7.2675 13.745ZM8.28628 12.6494C8.48264 12.6779 8.64485 12.8116 8.7103 12.9994C8.77575 13.1929 8.72738 13.4035 8.5794 13.5487L7.83096 14.28C7.82527 14.2857 7.82242 14.2943 7.82527 14.2999L8.00171 15.333C8.03586 15.5378 7.95048 15.7371 7.77689 15.8566C7.68867 15.9192 7.58338 15.9476 7.47809 15.9476C7.39271 15.9476 7.30734 15.9277 7.22766 15.8879L6.30279 15.4013C6.29994 15.4013 6.29994 15.3984 6.2971 15.3984C6.29425 15.3984 6.29425 15.3984 6.29425 15.4013L5.36938 15.8879C5.29254 15.9277 5.20433 15.9476 5.11895 15.9476C5.01366 15.9476 4.90837 15.9163 4.8173 15.8566C4.64371 15.7399 4.56118 15.5378 4.59533 15.333L4.77177 14.2999C4.77177 14.2914 4.77177 14.2857 4.76608 14.28L4.01764 13.5487C3.87251 13.4035 3.82129 13.1958 3.88958 12.9994C3.95504 12.8116 4.11725 12.6779 4.3136 12.6494L5.34661 12.4986C5.34946 12.4986 5.35515 12.4929 5.358 12.49L5.81901 11.5509C5.90723 11.3688 6.0922 11.255 6.29425 11.255C6.49915 11.255 6.68127 11.3688 6.77234 11.5509L7.23335 12.49C7.2362 12.4929 7.23904 12.4986 7.24474 12.4986L8.28628 12.6494Z" fill="#019DF4"/>
</svg>
