<svg width="24" height="24" viewBox="0 0 24 24" fill="none" xmlns="http://www.w3.org/2000/svg">
<path fill-rule="evenodd" clip-rule="evenodd" d="M8.10143 19.0552C7.8056 19.0552 7.56097 18.9642 7.3903 18.7935C7.21962 18.6228 7.13713 18.3895 7.13713 18.0964C7.13713 17.5046 7.50692 17.1376 8.10143 17.1376C8.69594 17.1376 9.06573 17.5046 9.06573 18.0964C9.06573 18.3895 8.9804 18.6228 8.81257 18.7935C8.64474 18.9642 8.39442 19.0552 8.10143 19.0552ZM7.84827 13.9196V6.74693C7.84827 6.43396 7.59226 6.17789 7.27936 6.17789C6.96646 6.17789 6.71045 6.43396 6.71045 6.74693V13.9196H5.34234C4.25572 13.9196 3.41374 14.2211 2.8363 14.8215C2.28161 15.3991 2 16.2185 2 17.2627V18.6568C2 19.701 2.28161 20.5204 2.8363 21.098C3.41374 21.6955 4.25572 21.9999 5.34234 21.9999H18.6577C19.7414 21.9999 20.5863 21.6983 21.1637 21.098C21.7184 20.5204 22 19.701 22 18.6568V17.2627C22 16.2185 21.7184 15.3962 21.1637 14.8215C20.5863 14.224 19.7443 13.9196 18.6577 13.9196H7.84827ZM10.2121 10.0616C9.89919 10.0616 9.64318 9.80551 9.64318 9.49254C9.64318 9.3389 9.70576 9.19095 9.81669 9.08568C10.3316 8.58492 10.5933 7.79965 10.5933 6.74977C10.5933 5.6999 10.3316 4.90609 9.811 4.40818C9.58913 4.18626 9.58913 3.82492 9.811 3.60299C10.0272 3.38676 10.3771 3.38107 10.6018 3.58877C11.3499 4.30576 11.7282 5.36986 11.7282 6.74693C11.7282 8.11831 11.3499 9.17957 10.6075 9.90225C10.5022 10.0018 10.36 10.0616 10.2121 10.0616ZM12.4963 11.4813C12.1834 11.4813 11.9273 11.2281 11.9245 10.9151C11.9245 10.7615 11.9871 10.6107 12.098 10.5054C12.9372 9.68886 13.3638 8.42559 13.3638 6.74693C13.3638 5.06258 12.9343 3.79647 12.0895 2.9799C11.8619 2.76082 11.8562 2.40232 12.0753 2.17471C12.2943 1.94709 12.6527 1.9414 12.8803 2.16048C13.9584 3.19898 14.5045 4.74107 14.5045 6.74693C14.5045 8.74425 13.9612 10.2835 12.8916 11.322C12.7864 11.4244 12.6442 11.4813 12.4963 11.4813ZM4.6057 18.7932C4.77638 18.9639 5.02101 19.055 5.31684 19.055C5.61267 19.055 5.86015 18.9639 6.02798 18.7932C6.19581 18.6225 6.28114 18.3892 6.28114 18.0962C6.28114 17.5044 5.91135 17.1373 5.31684 17.1373C4.72233 17.1373 4.35254 17.5044 4.35254 18.0962C4.35254 18.3892 4.43503 18.6225 4.6057 18.7932ZM3.65553 15.6124C4.01109 15.2454 4.57716 15.0576 5.34234 15.0576H18.6577C19.4228 15.0576 19.9889 15.2454 20.3445 15.6124C20.6887 15.9681 20.8622 16.5229 20.8622 17.2627V18.6568C20.8622 19.3965 20.6887 19.9514 20.3445 20.307C19.9889 20.674 19.4228 20.8618 18.6577 20.8618H5.34234C4.57716 20.8618 4.01109 20.674 3.65553 20.307C3.31134 19.9514 3.13782 19.3965 3.13782 18.6568V17.2627C3.13782 16.5229 3.31134 15.9681 3.65553 15.6124Z" fill="#019DF4"/>
</svg>
