<svg width="24" height="24" viewBox="0 0 24 24" fill="none" xmlns="http://www.w3.org/2000/svg">
<path fill-rule="evenodd" clip-rule="evenodd" d="M6.7038 14.1963C7.18186 14.1963 7.37536 13.9999 7.37536 13.5219C7.37536 13.041 7.17902 12.8475 6.7038 12.8475C6.22858 12.8475 6.03224 13.0438 6.03224 13.5219C6.03224 13.9999 6.22574 14.1963 6.7038 14.1963ZM6.7038 11.6039C7.86481 11.6039 8.6132 12.3552 8.6132 13.519C8.6132 14.6829 7.86196 15.4341 6.7038 15.4341C5.54279 15.4341 4.7944 14.6829 4.7944 13.519C4.7944 12.3552 5.54564 11.6039 6.7038 11.6039ZM18.661 9.43841C19.4578 8.4453 20.7582 6.50459 20.7611 5.34928C20.7668 3.95493 20.0639 3.24922 18.6753 3.24353H18.6639C17.9809 3.24353 17.4573 3.41996 17.1073 3.76712C16.7545 4.11713 16.5752 4.64357 16.5752 5.33505C16.5695 6.49321 17.8842 8.45668 18.661 9.43841ZM18.6781 2C20.7326 2.00569 22.0075 3.28906 21.9989 5.35212C21.9932 7.4408 19.4749 10.4429 19.0936 10.8242C18.8545 11.0661 18.4618 11.0661 18.2228 10.8271L18.22 10.8242C18.1716 10.7758 18.1261 10.7246 18.0834 10.6706C18.0578 10.9693 17.8159 11.2055 17.5143 11.2255C17.4886 11.2283 17.4118 11.2368 17.298 11.2539C16.9594 11.3023 16.6463 11.0661 16.598 10.7303C16.5496 10.3917 16.7829 10.0787 17.1216 10.0275C17.2297 10.0104 17.335 9.999 17.4431 9.98762C17.4773 9.98477 17.5057 9.999 17.537 9.999C16.6691 8.86929 15.3345 6.84322 15.3374 5.32936C15.3402 4.31348 15.6504 3.46833 16.2366 2.88498C16.8171 2.30448 17.6565 2 18.6667 2H18.6781ZM18.6667 5.61392C18.9826 5.61392 19.1135 5.48587 19.1135 5.16716C19.1135 4.8513 18.9854 4.7204 18.6667 4.7204C18.3509 4.7204 18.2228 4.84845 18.2228 5.16716C18.2228 5.48302 18.3509 5.61392 18.6667 5.61392ZM18.6667 3.89233C19.4379 3.89233 19.9387 4.39315 19.9387 5.16431C19.9387 5.93832 19.4407 6.4363 18.6667 6.4363C17.8956 6.4363 17.3976 5.93547 17.3976 5.16431C17.3976 4.39315 17.8956 3.89233 18.6667 3.89233ZM17.9126 17.5256C18.2342 17.648 18.3935 18.0037 18.274 18.3252C18.1574 18.6354 17.9696 18.9314 17.7191 19.2045C17.4886 19.4549 17.0988 19.4692 16.8484 19.2387L16.8455 19.2358C16.5951 19.0025 16.5809 18.6098 16.8142 18.3594C16.9565 18.2057 17.059 18.0464 17.1187 17.887C17.2382 17.5683 17.5939 17.4061 17.9126 17.5256ZM15.6732 19.1391C15.9805 18.9883 16.3532 19.1192 16.5012 19.4265C16.652 19.7338 16.5211 20.1066 16.2138 20.2546C15.9634 20.3769 15.6959 20.4907 15.4142 20.5932C15.0983 20.7127 14.7426 20.5562 14.6231 20.2375C14.6231 20.2346 14.6203 20.2318 14.6203 20.229C14.5008 19.9102 14.6601 19.5517 14.9817 19.4322C15.2179 19.3468 15.4483 19.2501 15.6732 19.1391ZM14.2247 15.8638C13.9117 15.7272 13.7666 15.3601 13.9032 15.0471C14.0341 14.7483 14.3699 14.6032 14.6772 14.7085C14.9191 14.8052 15.1695 14.8963 15.4199 14.9845C15.7414 15.1012 15.9093 15.4569 15.7927 15.7784C15.676 16.1 15.3203 16.2679 14.9987 16.1512C14.7426 16.0573 14.478 15.9634 14.2247 15.8638ZM14.8451 11.8145C14.5036 11.8116 14.2247 11.5328 14.2276 11.1913C14.2276 10.9267 14.3983 10.6933 14.6487 10.608C14.9248 10.5169 15.1979 10.4344 15.4626 10.3661C15.7927 10.2779 16.1341 10.4742 16.2195 10.8071C16.3049 11.1401 16.1114 11.4787 15.7784 11.5641C15.5394 11.6295 15.289 11.7007 15.0414 11.786C14.9788 11.8031 14.9134 11.8145 14.8451 11.8145ZM12.7706 13.0182C12.4292 13.0182 12.1503 12.7393 12.1531 12.3978C12.1531 12.2527 12.2044 12.1104 12.2983 11.9995C12.4889 11.769 12.7393 11.5527 13.0438 11.3535C13.3312 11.1657 13.7154 11.2454 13.9032 11.5328C14.091 11.8202 14.0113 12.2043 13.7239 12.3922C13.5219 12.5259 13.3597 12.6625 13.2458 12.7991C13.1263 12.9385 12.9528 13.0182 12.7706 13.0182ZM13.0324 15.1467C12.8901 15.1467 12.7507 15.0955 12.6397 15.0044C12.3552 14.7768 12.1247 14.4894 11.971 14.1593C11.8316 13.8463 11.9682 13.4792 12.2783 13.3369C12.5914 13.1975 12.9556 13.3369 13.0979 13.6471C13.1605 13.7865 13.2686 13.9174 13.428 14.0483C13.6926 14.2674 13.7296 14.6601 13.5105 14.9247C13.391 15.0642 13.2145 15.1467 13.0324 15.1467ZM16.4215 16.7317C16.1171 16.5752 16.0004 16.1996 16.1569 15.8951C16.3134 15.5906 16.689 15.4739 16.9935 15.6305C17.3264 15.804 17.5882 15.9833 17.7988 16.1825C18.0464 16.4187 18.0578 16.8142 17.8187 17.0618C17.7021 17.1842 17.5427 17.2524 17.372 17.2553C17.2155 17.2553 17.0618 17.1955 16.948 17.0874C16.7886 16.9451 16.6122 16.8285 16.4215 16.7317ZM11.1799 20.3399C11.5356 20.3001 11.8344 20.522 11.8828 20.8607C11.934 21.1993 11.7007 21.5152 11.3621 21.5664C11.0775 21.6091 10.8043 21.6461 10.5425 21.6774C10.2039 21.72 9.89657 21.481 9.85389 21.1424V21.1367C9.8112 20.7981 10.0531 20.4879 10.3917 20.4452C10.645 20.4168 10.9096 20.3798 11.1799 20.3399ZM13.5048 19.8875C13.8349 19.805 14.1707 20.0041 14.2532 20.3342V20.3399C14.3357 20.6729 14.1337 21.0086 13.8036 21.0912C13.5333 21.1595 13.2629 21.2221 12.9897 21.279C12.654 21.3473 12.3267 21.1339 12.2584 20.7981C12.1873 20.4623 12.4035 20.135 12.7393 20.0639C12.9954 20.0098 13.2515 19.9501 13.5048 19.8875ZM6.68957 20.4509C7.87619 19.0366 10.1641 15.7329 10.1697 13.7922C10.1726 12.6682 9.87665 11.7974 9.28761 11.2027C8.70142 10.6108 7.83635 10.3092 6.71234 10.3063H6.69526C4.44154 10.3063 3.24639 11.5043 3.23785 13.7723C3.23216 15.73 5.5058 19.0366 6.68957 20.4509ZM8.80955 20.6046C9.14818 20.5847 9.44127 20.8379 9.47542 21.1765C9.50103 21.518 9.24777 21.8168 8.9063 21.8424C8.53353 21.8709 8.26888 21.8851 8.14937 21.8936C8.13799 21.8965 8.1266 21.8965 8.11238 21.8965C7.81928 21.8936 7.56317 21.6973 7.48634 21.4127C7.32414 21.6062 7.19609 21.7485 7.12495 21.8168C6.88592 22.0587 6.49607 22.0615 6.2542 21.8225L6.2485 21.8168C5.71922 21.2847 1.99148 16.7943 2.00001 13.7666C2.00855 10.8214 3.76429 9.06564 6.69526 9.06564H6.71803C8.16075 9.06848 9.35306 9.50671 10.1669 10.3291C10.9836 11.1515 11.4104 12.3495 11.4076 13.795C11.3991 16.0004 9.38152 19.0025 8.10099 20.6529C8.22051 20.6473 8.46808 20.633 8.80955 20.6046Z" fill="#019DF4"/>
</svg>
